<svg width="19" height="19" viewBox="0 0 19 19" fill="none" xmlns="http://www.w3.org/2000/svg">
<path d="M9 1V0.5H8.5V1H9ZM10 1H10.5V0.5H10V1ZM10 9H9.5V9.5H10V9ZM18 9H18.5V8.5H18V9ZM18 10V10.5H18.5V10H18ZM9 10H8.5V10.5H9V10ZM1 10H0.5V10.5H1V10ZM9 10H9.5V9.5H9V10ZM1 9V8.5H0.5V9H1ZM10 9H10.5V8.5H10V9ZM10 18V18.5H10.5V18H10ZM9 18H8.5V18.5H9V18ZM8.5 1V9.5H9.5V1H8.5ZM10 0.5H9V1.5H10V0.5ZM10.5 9V1H9.5V9H10.5ZM18 8.5H10V9.5H18V8.5ZM18.5 10V9H17.5V10H18.5ZM9.5 10.5H18V9.5H9.5V10.5ZM9 10.5H9.5V9.5H9V10.5ZM8.5 9.5V10H9.5V9.5H8.5ZM1 10.5H9V9.5H1V10.5ZM0.5 9V10H1.5V9H0.5ZM9.5 8.5H1V9.5H9.5V8.5ZM10 8.5H9.5V9.5H10V8.5ZM10.5 9.5V9H9.5V9.5H10.5ZM10.5 18V9.5H9.5V18H10.5ZM9 18.5H10V17.5H9V18.5ZM8.5 10V18H9.5V10H8.5Z" fill="#B5B5B5"/>
</svg>
