<svg width="59" height="65" viewBox="0 0 59 65" fill="none" xmlns="http://www.w3.org/2000/svg">
<path d="M30.55 11.05C28.3994 11.05 26.65 9.30057 26.65 7.15C26.65 4.99943 28.3994 3.25 30.55 3.25C32.7006 3.25 34.45 4.99943 34.45 7.15C34.45 9.30057 32.7006 11.05 30.55 11.05ZM30.225 5.85C29.3291 5.85 28.6 6.57908 28.6 7.475C28.6 8.37092 29.3291 9.1 30.225 9.1C31.1209 9.1 31.85 8.37092 31.85 7.475C31.85 6.57908 31.1209 5.85 30.225 5.85ZM7.15 11.05C4.99943 11.05 3.25 9.30057 3.25 7.15C3.25 4.99943 4.99943 3.25 7.15 3.25C9.30057 3.25 11.05 4.99943 11.05 7.15C11.05 9.30057 9.30057 11.05 7.15 11.05ZM7.475 5.85C6.57908 5.85 5.85 6.57908 5.85 7.475C5.85 8.37092 6.57908 9.1 7.475 9.1C8.37092 9.1 9.1 8.37092 9.1 7.475C9.1 6.57908 8.37092 5.85 7.475 5.85ZM7.15 52.65C9.30057 52.65 11.05 54.3994 11.05 56.55C11.05 58.7006 9.30057 60.45 7.15 60.45C4.99943 60.45 3.25 58.7006 3.25 56.55C3.25 54.3994 4.99943 52.65 7.15 52.65ZM7.475 58.5C8.37092 58.5 9.1 57.7709 9.1 56.875C9.1 55.9791 8.37092 55.25 7.475 55.25C6.57908 55.25 5.85 55.9791 5.85 56.875C5.85 57.7709 6.57908 58.5 7.475 58.5ZM47.4623 18.7464C53.6931 18.9337 58.5 22.2399 58.5 26.4407V57.2881C58.5 61.6123 53.4094 65 46.9104 65C44.3011 65 41.7944 64.4194 39.7612 63.3651C37.7954 64.3897 35.3075 65 32.5613 65C30.335 65 28.282 64.5946 26.5336 63.8983H0V0H47.4623V18.7464ZM56.55 26.325C56.55 23.3305 52.2367 20.8022 47.1305 20.8L46.6094 20.8188C46.0772 20.8365 45.5549 20.8807 45.0437 20.9492C45.0238 20.9514 45.0049 20.9547 44.985 20.958C44.4993 21.0254 44.0247 21.116 43.5657 21.2287C43.5468 21.2343 43.5269 21.2376 43.508 21.242C42.9669 21.3768 42.4546 21.5437 41.9667 21.7359C41.9368 21.7481 41.9058 21.758 41.8769 21.7702C41.3835 21.9691 40.9178 22.1945 40.4865 22.4498C40.0407 22.7128 39.646 22.9956 39.3034 23.294C39.2634 23.3282 39.2291 23.3658 39.1903 23.4012C39.0661 23.5139 38.9441 23.6277 38.8354 23.7448C38.7645 23.8211 38.7046 23.8995 38.6403 23.978C38.5726 24.0586 38.5017 24.1382 38.4418 24.22C38.3675 24.3216 38.3054 24.4266 38.2422 24.5316C38.2034 24.5946 38.1591 24.6553 38.1247 24.7194C38.0615 24.8355 38.0138 24.9548 37.965 25.073C37.9417 25.1294 37.9118 25.1846 37.8918 25.241C37.8475 25.367 37.8175 25.4962 37.7887 25.6244C37.7765 25.6753 37.7577 25.7261 37.7488 25.778C37.7166 25.9581 37.7 26.1405 37.7 26.325C37.7 29.3195 42.0166 31.85 47.125 31.85C52.2333 31.85 56.55 29.3195 56.55 26.325ZM56.4941 53.7353C56.512 53.6491 56.522 53.5629 56.5332 53.4789C56.5411 53.4196 56.5466 53.3593 56.55 53.3C56.5019 53.342 56.4438 53.3787 56.3946 53.4207C56.2291 53.5586 56.0581 53.6933 55.878 53.8237C55.7763 53.8969 55.6757 53.9702 55.5706 54.0413C55.3738 54.1728 55.167 54.2978 54.9557 54.4206C54.8573 54.4777 54.7634 54.537 54.6616 54.5919C54.3441 54.7632 54.0154 54.9259 53.6699 55.0746C53.6565 55.08 53.6431 55.0843 53.6296 55.0897C53.2965 55.2319 52.9476 55.3613 52.5899 55.4819C52.468 55.5229 52.3405 55.5574 52.2153 55.5961C51.957 55.6759 51.6977 55.7513 51.4293 55.8181C51.2806 55.8558 51.1308 55.8892 50.9787 55.9226C50.7194 55.9808 50.4555 56.0315 50.1872 56.0778C50.0318 56.1036 49.8763 56.1306 49.7176 56.1532C49.428 56.1942 49.1328 56.2265 48.8343 56.2545C48.6923 56.2674 48.5548 56.2847 48.4117 56.2944C47.9689 56.3256 47.5206 56.345 47.0633 56.345C46.6373 56.345 46.2147 56.3256 45.7932 56.2954C45.6669 56.2868 45.5417 56.2739 45.4153 56.262C45.1101 56.2351 44.806 56.1995 44.5041 56.1564C44.4258 56.1457 44.3465 56.1414 44.2682 56.1295V57.4225C44.2682 57.6983 44.2436 57.9699 44.2 58.2382C44.2525 58.2479 44.3051 58.2543 44.3565 58.2629C44.7076 58.3244 45.0631 58.3729 45.422 58.4095C45.5372 58.4213 45.6523 58.4321 45.7686 58.4418C46.1957 58.4763 46.6262 58.5 47.0633 58.5C47.382 58.5 47.6973 58.4903 48.0081 58.4709C48.1121 58.4644 48.2127 58.4526 48.3155 58.444C48.5213 58.4278 48.7281 58.4127 48.9305 58.389C49.0501 58.375 49.1664 58.3545 49.2838 58.3373C49.4649 58.3114 49.6471 58.2877 49.8249 58.2565C49.9513 58.2349 50.072 58.2058 50.1961 58.18C50.3593 58.1466 50.5248 58.1153 50.6847 58.0765C50.8088 58.0464 50.9273 58.0108 51.0492 57.9774C51.2024 57.9365 51.3589 57.8966 51.5076 57.8503C51.6272 57.8136 51.7401 57.7716 51.8564 57.7317C52.0006 57.6822 52.1471 57.6348 52.2857 57.582C52.402 57.5378 52.5116 57.4893 52.6234 57.4419C52.7553 57.3869 52.8884 57.3331 53.0147 57.2749C53.1243 57.2242 53.2271 57.1693 53.3334 57.1154C53.4541 57.054 53.576 56.9947 53.6911 56.9301C53.7918 56.873 53.8857 56.8137 53.9818 56.7545C54.0925 56.6876 54.2043 56.6219 54.3083 56.5519C54.4 56.4894 54.4838 56.4247 54.571 56.3612C54.6694 56.289 54.7701 56.2179 54.8617 56.1424C54.9434 56.0756 55.0171 56.0067 55.0932 55.9377C55.1793 55.8612 55.2665 55.7847 55.3459 55.705C55.4174 55.6339 55.48 55.5595 55.546 55.4862C55.6187 55.4065 55.6913 55.3268 55.7562 55.2438C55.8166 55.1684 55.868 55.0897 55.9217 55.0121C55.9798 54.9292 56.0379 54.8451 56.0882 54.76C56.1352 54.6803 56.1732 54.5995 56.2135 54.5187C56.2571 54.4314 56.3007 54.3441 56.3364 54.2557C56.3689 54.1738 56.3935 54.0898 56.4192 54.0058C56.4471 53.9152 56.4751 53.8258 56.4941 53.7353ZM42.1945 53.7373C42.2122 53.6511 42.2222 53.5649 42.2333 53.4809C42.2411 53.4217 42.2467 53.3614 42.25 53.3022C42.2022 53.3442 42.1445 53.3808 42.0956 53.4228C41.9312 53.5606 41.7613 53.6953 41.5825 53.8256C41.4814 53.8988 41.3814 53.9721 41.277 54.0432C41.0815 54.1746 40.876 54.2995 40.6661 54.4223C40.5684 54.4794 40.4751 54.5386 40.374 54.5935C40.0586 54.7648 39.732 54.9274 39.3888 55.0761C39.3755 55.0814 39.3621 55.0857 39.3488 55.0911C39.0178 55.2333 38.6713 55.3625 38.3158 55.4832C38.1948 55.5241 38.0681 55.5586 37.9437 55.5973C37.6872 55.6771 37.4295 55.7524 37.1629 55.8192C37.0152 55.8569 36.8663 55.8903 36.7153 55.9237C36.4576 55.9819 36.1955 56.0325 35.9289 56.0788C35.7745 56.1046 35.6201 56.1316 35.4624 56.1542C35.1747 56.1951 34.8815 56.2274 34.5849 56.2554C34.4439 56.2684 34.3073 56.2856 34.1651 56.2953C33.7252 56.3265 33.2798 56.3459 32.8256 56.3459C32.3713 56.3459 31.9259 56.3265 31.4838 56.2931C31.3427 56.2834 31.205 56.2662 31.0651 56.2533C30.7685 56.2253 30.4753 56.194 30.1876 56.152C30.0299 56.1294 29.8755 56.1036 29.7211 56.0766C29.4545 56.0303 29.1924 55.9786 28.9347 55.9215C28.7837 55.8882 28.6348 55.8548 28.4871 55.8181C28.2205 55.7503 27.9617 55.6749 27.7063 55.5963C27.5819 55.5575 27.4552 55.523 27.3342 55.4821C26.9776 55.3626 26.6311 55.2322 26.2979 55.089C26.2856 55.0836 26.2734 55.0804 26.2612 55.075C25.918 54.9263 25.5914 54.7637 25.276 54.5925C25.1749 54.5375 25.0816 54.4783 24.9839 54.4212C24.7728 54.2984 24.5674 54.1735 24.3719 54.041C24.2675 53.971 24.1675 53.8978 24.0675 53.8245C23.8887 53.6942 23.7177 53.5596 23.5533 53.4206C23.5044 53.3797 23.4478 53.342 23.4 53.3C23.4044 53.3603 23.4089 53.4196 23.4167 53.4788C23.4278 53.565 23.4378 53.6522 23.4555 53.7373C23.4744 53.8288 23.5022 53.9182 23.53 54.0076C23.5555 54.0916 23.5799 54.1756 23.6121 54.2575C23.6477 54.3458 23.691 54.4331 23.7343 54.5203C23.7743 54.6011 23.8121 54.6829 23.8587 54.7616C23.9087 54.8466 23.9676 54.9307 24.0253 55.0147C24.0786 55.0922 24.1297 55.1698 24.1886 55.2452C24.253 55.3281 24.3263 55.4078 24.3974 55.4886C24.4618 55.5607 24.5252 55.635 24.5951 55.7061C24.674 55.7858 24.7606 55.8623 24.8462 55.9388C24.9217 56.0077 24.995 56.0766 25.0761 56.1434C25.1672 56.2188 25.2671 56.2899 25.3649 56.3621C25.4515 56.4267 25.5348 56.4913 25.6259 56.5527C25.7292 56.6227 25.8414 56.6884 25.9502 56.7552C26.0457 56.8144 26.139 56.8747 26.239 56.9307C26.3534 56.9954 26.4745 57.0546 26.5944 57.116C26.6999 57.1688 26.8021 57.2248 26.911 57.2754C27.0365 57.3336 27.1698 57.3874 27.2997 57.4423C27.4119 57.4886 27.5197 57.5382 27.6352 57.5824C27.774 57.6362 27.9184 57.6825 28.0617 57.7321C28.1772 57.7719 28.2894 57.8139 28.4082 57.8505C28.5571 57.8969 28.7126 57.9367 28.8658 57.9787C28.9858 58.011 29.1024 58.0466 29.2257 58.0767C29.3857 58.1155 29.55 58.1478 29.7133 58.1812C29.8366 58.206 29.9566 58.235 30.081 58.2577C30.2576 58.2889 30.4386 58.3126 30.6186 58.3384C30.7363 58.3557 30.8507 58.3761 30.9695 58.3901C31.1695 58.4138 31.375 58.4289 31.5804 58.4451C31.6826 58.4537 31.7826 58.4655 31.8859 58.472C32.1958 58.4903 32.509 58.5 32.8256 58.5C33.1421 58.5 33.4553 58.4903 33.7641 58.4709C33.8674 58.4645 33.9674 58.4526 34.0696 58.444C34.2739 58.4278 34.4794 58.4128 34.6805 58.3891C34.7993 58.3751 34.9148 58.3546 35.0314 58.3374C35.2114 58.3115 35.3924 58.2878 35.569 58.2566C35.6945 58.235 35.8145 58.206 35.9378 58.1801C36.1 58.1467 36.2643 58.1155 36.4232 58.0767C36.5465 58.0466 36.6642 58.011 36.7853 57.9776C36.9374 57.9367 37.0929 57.8969 37.2407 57.8505C37.3595 57.8139 37.4717 57.7719 37.5872 57.7321C37.7305 57.6825 37.876 57.6351 38.0137 57.5824C38.1292 57.5382 38.2381 57.4897 38.3492 57.4423C38.4802 57.3874 38.6124 57.3336 38.7379 57.2754C38.8468 57.2248 38.9489 57.1698 39.0545 57.116C39.1744 57.0546 39.2955 56.9954 39.4099 56.9307C39.5099 56.8736 39.6032 56.8144 39.6987 56.7552C39.8086 56.6884 39.9197 56.6227 40.023 56.5527C40.1141 56.4902 40.1974 56.4256 40.284 56.3621C40.3818 56.2899 40.4817 56.2188 40.5728 56.1434C40.6539 56.0766 40.7272 56.0077 40.8027 55.9388C40.8883 55.8623 40.9749 55.7858 41.0538 55.7061C41.1248 55.635 41.187 55.5607 41.2526 55.4875C41.3248 55.4078 41.397 55.3281 41.4614 55.2452C41.5214 55.1698 41.5725 55.0911 41.6258 55.0136C41.6835 54.9307 41.7413 54.8466 41.7913 54.7616C41.8379 54.6819 41.8757 54.6011 41.9157 54.5203C41.959 54.4331 42.0023 54.3458 42.0379 54.2575C42.0701 54.1756 42.0945 54.0916 42.12 54.0076C42.1478 53.9171 42.1756 53.8278 42.1945 53.7373ZM7.8 21.45C7.81658 21.4332 7.83426 21.4187 7.85083 21.4019C8.03648 21.2119 8.2365 21.0365 8.43099 20.8565C8.61885 20.681 8.80229 20.4989 8.99898 20.3335C9.07081 20.2742 9.14817 20.2217 9.2211 20.1636C11.4876 18.3261 14.2259 17.1604 17.1653 16.8385C17.2018 16.8341 17.2361 16.8251 17.2725 16.8218C17.793 16.7692 18.319 16.7413 18.8506 16.7413C19.3821 16.7413 19.9081 16.7692 20.4275 16.8218C20.4639 16.8262 20.4982 16.8341 20.5347 16.8385C23.4741 17.1615 26.2124 18.3261 28.4789 20.1636C28.5518 20.2217 28.6292 20.2731 28.701 20.3335C28.8966 20.4989 29.08 20.681 29.269 20.8565C29.4646 21.0365 29.6635 21.2119 29.8492 21.4019C29.8657 21.4187 29.8834 21.4332 29.9 21.45V14.4847C26.3793 14.212 23.5603 11.362 23.2907 7.8H14.4093C14.1397 11.362 11.3218 14.212 7.8 14.4847V21.45ZM34.6224 34.5572C34.0303 34.4876 33.4304 34.45 32.825 34.45C30.1705 34.45 27.7366 35.1373 26.0046 36.2136C25.7851 36.3506 25.5766 36.4931 25.3826 36.6412C25.336 36.6766 25.2905 36.7119 25.2462 36.7473C24.5521 37.302 24.0342 37.923 23.7304 38.5794C23.522 39.028 23.4 39.4943 23.4 39.975C23.4 42.9695 27.7166 45.5 32.825 45.5C37.9333 45.5 42.25 42.9695 42.25 39.975C42.25 39.7805 42.23 39.5882 42.1923 39.3938C42.1846 39.354 42.1691 39.3142 42.1602 39.2744C42.1247 39.1197 42.0837 38.9661 42.0249 38.8136C42.0127 38.7816 41.9961 38.7518 41.9828 38.7197C41.914 38.5573 41.8375 38.3948 41.7422 38.2346C41.7311 38.2158 41.7178 38.1971 41.7056 38.1772C41.6024 38.0081 41.4849 37.8401 41.3507 37.6744C41.3397 37.6611 41.3275 37.6468 41.3164 37.6335C40.9227 37.1561 40.4082 36.713 39.8084 36.3174C39.7485 36.2788 39.6897 36.239 39.6276 36.2014C39.3538 36.0301 39.0644 35.8688 38.7583 35.7196C38.6497 35.6666 38.5321 35.6191 38.419 35.5694C38.2139 35.4788 38.0032 35.3926 37.787 35.3119C37.3446 35.1461 36.8833 34.9992 36.3976 34.8787C35.8332 34.7395 35.2578 34.6334 34.6723 34.5616C34.6557 34.5594 34.639 34.5594 34.6224 34.5572ZM38.3794 31.7323C38.2007 31.6021 38.0297 31.4677 37.8654 31.3301C37.8121 31.2849 37.7511 31.2452 37.7 31.2C37.7377 31.829 37.9809 32.4473 38.4216 33.043C40.2122 33.6828 41.692 34.6183 42.7289 35.7538C42.8887 35.8032 43.0519 35.8495 43.2173 35.8935C43.3605 35.9312 43.5026 35.9731 43.6492 36.0075C43.8779 36.0613 44.1132 36.1032 44.3475 36.1452C44.4918 36.171 44.6328 36.2021 44.7782 36.2237C45.0391 36.2624 45.3044 36.2892 45.5708 36.3151C45.6952 36.3269 45.8173 36.3452 45.9427 36.3548C46.3357 36.3839 46.732 36.4 47.1305 36.4C47.4469 36.4 47.76 36.3903 48.0686 36.3731C48.1718 36.3667 48.2718 36.3548 48.3739 36.3462C48.5782 36.3301 48.7835 36.3151 48.9845 36.2914C49.1032 36.2774 49.2187 36.257 49.3353 36.2398C49.5151 36.214 49.6961 36.1903 49.8726 36.1591C49.998 36.1376 50.1179 36.1086 50.2411 36.0828C50.4032 36.0495 50.5675 36.0183 50.7263 35.9796C50.8495 35.9495 50.9672 35.914 51.0882 35.8806C51.2402 35.8398 51.3957 35.8 51.5433 35.7538C51.6621 35.7172 51.7742 35.6753 51.8897 35.6355C52.0329 35.586 52.1783 35.5387 52.316 35.486C52.4314 35.4419 52.5402 35.3935 52.6512 35.3462C52.7822 35.2914 52.9143 35.2376 53.0398 35.1796C53.1486 35.129 53.2507 35.0742 53.3562 35.0204C53.476 34.9591 53.5971 34.9 53.7114 34.8355C53.8113 34.7785 53.9046 34.7194 54 34.6602C54.1099 34.5935 54.2209 34.528 54.3242 34.4581C54.4152 34.3957 54.4985 34.3312 54.5851 34.2677C54.6828 34.1957 54.7827 34.1247 54.8737 34.0495C54.9547 33.9828 55.028 33.914 55.1035 33.8452C55.189 33.7688 55.2756 33.6925 55.3544 33.6129C55.4254 33.5419 55.4876 33.4677 55.5531 33.3946C55.6253 33.3151 55.6974 33.2355 55.7618 33.1527C55.8218 33.0774 55.8728 32.9989 55.9261 32.9215C55.9838 32.8387 56.0416 32.7548 56.0915 32.6699C56.1381 32.5903 56.1759 32.5097 56.2158 32.429C56.2591 32.3419 56.3024 32.2548 56.338 32.1667C56.3702 32.0849 56.3946 32.0011 56.4201 31.9172C56.4479 31.8269 56.4756 31.7376 56.4945 31.6473C56.5134 31.5624 56.5222 31.4753 56.5333 31.3892C56.5411 31.3301 56.5467 31.2699 56.55 31.2108C56.5023 31.2527 56.4445 31.2892 56.3957 31.3312C56.2314 31.4688 56.0615 31.6032 55.8828 31.7333C55.7818 31.8065 55.6819 31.8796 55.5775 31.9505C55.3821 32.0817 55.1768 32.2065 54.967 32.329C54.8693 32.386 54.776 32.4452 54.675 32.5C54.3597 32.671 54.0333 32.8333 53.6903 32.9817C53.677 32.9871 53.6637 32.9914 53.6503 32.9968C53.3195 33.1387 52.9732 33.2677 52.6179 33.3882C52.4969 33.429 52.3704 33.4634 52.246 33.5022C51.9896 33.5817 51.732 33.657 51.4656 33.7237C51.318 33.7613 51.1692 33.7946 51.0182 33.828C50.7607 33.886 50.4987 33.9366 50.2323 33.9828C50.0779 34.0086 49.9236 34.0355 49.766 34.0581C49.4785 34.0989 49.1854 34.1312 48.889 34.1591C48.748 34.172 48.6115 34.1892 48.4694 34.1989C48.0298 34.2301 47.5846 34.2495 47.1305 34.2495C46.6765 34.2495 46.2313 34.2301 45.7917 34.1968C45.6507 34.1871 45.5131 34.1699 45.3732 34.157C45.0768 34.129 44.7837 34.0979 44.4962 34.0559C44.3386 34.0333 44.1843 34.0075 44.03 33.9806C43.7635 33.9344 43.5015 33.8828 43.244 33.8258C43.093 33.7925 42.9442 33.7591 42.7966 33.7226C42.5302 33.6548 42.2715 33.5796 42.0162 33.5011C41.8918 33.4624 41.7653 33.428 41.6443 33.3871C41.2879 33.2677 40.9416 33.1376 40.6085 32.9946C40.5963 32.9892 40.5841 32.986 40.5719 32.9806C40.2289 32.8323 39.9025 32.6699 39.5872 32.4989C39.4862 32.4441 39.3929 32.3849 39.2953 32.328C39.0843 32.2054 38.879 32.0806 38.6836 31.9484C38.5792 31.8785 38.4793 31.8054 38.3794 31.7323ZM55.5793 36.4912C55.3843 36.6226 55.1793 36.7486 54.9698 36.8714C54.8723 36.9285 54.7792 36.9878 54.6784 37.0427C54.3637 37.214 54.0379 37.3767 53.6955 37.5253C53.6822 37.5307 53.6689 37.535 53.6556 37.5404C53.3254 37.6826 52.9796 37.8119 52.625 37.9326C52.5042 37.9735 52.3779 38.008 52.2538 38.0467C51.9978 38.1265 51.7408 38.2019 51.4748 38.2687C51.3274 38.3064 51.1789 38.3398 51.0282 38.3732C50.7712 38.4313 50.5096 38.482 50.2437 38.5283C50.0897 38.5541 49.9356 38.5811 49.7783 38.6037C49.4913 38.6446 49.1987 38.677 48.9029 38.705C48.7621 38.7179 48.6258 38.7351 48.484 38.7448C48.0452 38.7761 47.6008 38.7955 47.1476 38.7955C46.6622 38.7955 46.1791 38.775 45.6993 38.7362C45.5408 38.7233 45.3868 38.6985 45.2294 38.6813C44.9103 38.6468 44.5901 38.6134 44.2765 38.5628C44.251 38.5584 44.2255 38.5574 44.2 38.5531C44.2155 38.6112 44.2222 38.6705 44.2355 38.7297C44.2687 38.8752 44.3042 39.0184 44.3241 39.166C44.3574 39.4009 44.3773 39.6368 44.3773 39.8727V40.6742C44.5867 40.713 44.7939 40.7582 45.0056 40.7873C45.1674 40.81 45.3292 40.8358 45.4921 40.853C46.0384 40.9112 46.5902 40.95 47.1476 40.95C47.4634 40.95 47.7759 40.9403 48.084 40.922C48.187 40.9155 48.2867 40.9037 48.3887 40.8951C48.5926 40.8789 48.7976 40.8638 48.9982 40.8401C49.1167 40.8261 49.232 40.8056 49.3483 40.7884C49.5278 40.7626 49.7085 40.7389 49.8847 40.7076C50.0099 40.6861 50.1296 40.657 50.2526 40.6311C50.4143 40.5977 50.5783 40.5665 50.7368 40.5277C50.8598 40.4975 50.9773 40.462 51.098 40.4286C51.2499 40.3877 51.405 40.3478 51.5524 40.3015C51.6709 40.2649 51.7829 40.2228 51.8981 40.183C52.0411 40.1334 52.1862 40.086 52.3236 40.0332C52.4389 39.9891 52.5475 39.9406 52.6583 39.8932C52.789 39.8383 52.9209 39.7844 53.0461 39.7262C53.1547 39.6756 53.2567 39.6206 53.3619 39.5668C53.4816 39.5054 53.6024 39.4461 53.7165 39.3815C53.8163 39.3244 53.9093 39.2651 54.0046 39.2059C54.1143 39.1391 54.2252 39.0734 54.3282 39.0034C54.4191 38.9409 54.5022 38.8762 54.5886 38.8127C54.6861 38.7405 54.7859 38.6694 54.8767 38.594C54.9576 38.5272 55.0308 38.4583 55.1061 38.3893C55.1914 38.3128 55.2779 38.2363 55.3566 38.1566C55.4275 38.0855 55.4895 38.0112 55.5549 37.9379C55.6269 37.8582 55.699 37.7785 55.7632 37.6956C55.8231 37.6201 55.874 37.5415 55.9272 37.4639C55.9849 37.381 56.0425 37.297 56.0923 37.2119C56.1389 37.1321 56.1766 37.0513 56.2165 36.9706C56.2597 36.8833 56.3029 36.796 56.3383 36.7077C56.3705 36.6258 56.3949 36.5418 56.4203 36.4578C56.4481 36.3673 56.4757 36.2779 56.4946 36.1874C56.5134 36.1023 56.5223 36.015 56.5334 35.9288C56.5411 35.8696 56.5467 35.8092 56.55 35.75C56.5023 35.792 56.4447 35.8286 56.396 35.8707C56.232 36.0085 56.0624 36.1432 55.884 36.2736C55.7832 36.3468 55.6834 36.4201 55.5793 36.4912ZM55.5651 40.3912C55.3673 40.5226 55.1593 40.6486 54.9468 40.7714C54.8479 40.8285 54.7534 40.8878 54.6511 40.9427C54.3318 41.114 54.0013 41.2767 53.6539 41.4253C53.6404 41.4307 53.6269 41.435 53.6134 41.4404C53.2784 41.5826 52.9276 41.7119 52.5679 41.8326C52.4453 41.8735 52.3172 41.908 52.1912 41.9467C51.9315 42.0265 51.6707 42.1019 51.4009 42.1687C51.2514 42.2064 51.1007 42.2398 50.9478 42.2732C50.687 42.3313 50.4217 42.382 50.1518 42.4283C49.9956 42.4541 49.8393 42.4811 49.6796 42.5037C49.3885 42.5446 49.0917 42.577 48.7915 42.605C48.6487 42.6179 48.5104 42.6351 48.3665 42.6448C47.9213 42.6761 47.4705 42.6954 47.0107 42.6954C46.5823 42.6954 46.1573 42.6761 45.7335 42.6459C45.6064 42.6373 45.4805 42.6243 45.3535 42.6125C45.0466 42.5856 44.7408 42.55 44.4372 42.5069C44.3585 42.4962 44.2787 42.4918 44.2 42.48V44.5742C44.4125 44.613 44.6227 44.6582 44.8375 44.6873C45.0016 44.71 45.1657 44.7358 45.331 44.753C45.8853 44.8112 46.4451 44.85 47.0107 44.85C47.3311 44.85 47.6481 44.8403 47.9606 44.822C48.0652 44.8155 48.1664 44.8037 48.2698 44.7951C48.4767 44.7789 48.6847 44.7638 48.8882 44.7401C49.0085 44.7261 49.1254 44.7056 49.2434 44.6884C49.4256 44.6626 49.6088 44.6389 49.7876 44.6076C49.9146 44.5861 50.036 44.557 50.1608 44.5311C50.325 44.4977 50.4914 44.4665 50.6521 44.4277C50.7769 44.3975 50.8961 44.362 51.0186 44.3286C51.1727 44.2877 51.3301 44.2478 51.4796 44.2015C51.5999 44.1649 51.7134 44.1228 51.8304 44.083C51.9754 44.0334 52.1227 43.986 52.2621 43.9332C52.379 43.8891 52.4892 43.8406 52.6016 43.7932C52.7343 43.7383 52.868 43.6844 52.9951 43.6262C53.1053 43.5756 53.2087 43.5206 53.3155 43.4668C53.4369 43.4054 53.5595 43.3461 53.6753 43.2815C53.7764 43.2244 53.8709 43.1651 53.9676 43.1059C54.0789 43.0391 54.1913 42.9734 54.2959 42.9034C54.388 42.8409 54.4724 42.7762 54.5601 42.7127C54.659 42.6405 54.7602 42.5694 54.8524 42.494C54.9344 42.4272 55.0086 42.3583 55.0851 42.2893C55.1717 42.2128 55.2593 42.1363 55.3392 42.0566C55.4111 41.9855 55.4741 41.9112 55.5404 41.8379C55.6135 41.7582 55.6866 41.6785 55.7518 41.5956C55.8125 41.5201 55.8642 41.4415 55.9182 41.3639C55.9766 41.281 56.0351 41.197 56.0857 41.1119C56.1329 41.0321 56.1711 40.9513 56.2116 40.8705C56.2554 40.7833 56.2993 40.696 56.3353 40.6077C56.3679 40.5258 56.3926 40.4418 56.4185 40.3578C56.4466 40.2673 56.4747 40.1779 56.4938 40.0874C56.5129 40.0023 56.5219 39.915 56.5331 39.8288C56.541 39.7696 56.5466 39.7092 56.55 39.65C56.5017 39.692 56.4432 39.7286 56.3937 39.7707C56.2273 39.9085 56.0553 40.0432 55.8743 40.1736C55.772 40.2468 55.6708 40.3201 55.5651 40.3912ZM55.5651 44.9412C55.3673 45.0726 55.1593 45.1986 54.9468 45.3214C54.8479 45.3785 54.7534 45.4378 54.6511 45.4927C54.3318 45.664 54.0013 45.8267 53.6539 45.9753C53.6404 45.9807 53.6269 45.985 53.6134 45.9904C53.2784 46.1326 52.9276 46.2619 52.5679 46.3826C52.4453 46.4235 52.3172 46.458 52.1912 46.4967C51.9315 46.5765 51.6707 46.6519 51.4009 46.7187C51.2514 46.7564 51.1007 46.7898 50.9478 46.8232C50.687 46.8813 50.4217 46.932 50.1518 46.9783C49.9956 47.0041 49.8393 47.0311 49.6796 47.0537C49.3885 47.0946 49.0917 47.127 48.7915 47.155C48.6487 47.1679 48.5104 47.1851 48.3665 47.1948C47.9213 47.2261 47.4705 47.2454 47.0107 47.2454C46.5823 47.2454 46.1573 47.2261 45.7335 47.1959C45.6064 47.1873 45.4805 47.1744 45.3535 47.1625C45.0466 47.1356 44.7408 47.1 44.4372 47.0569C44.3585 47.0462 44.2787 47.0418 44.2 47.03V49.1242C44.4125 49.163 44.6227 49.2082 44.8375 49.2373C45.0016 49.26 45.1657 49.2858 45.331 49.303C45.8853 49.3612 46.4451 49.4 47.0107 49.4C47.3311 49.4 47.6481 49.3903 47.9606 49.372C48.0652 49.3655 48.1664 49.3537 48.2698 49.3451C48.4767 49.3289 48.6847 49.3138 48.8882 49.2901C49.0085 49.2761 49.1254 49.2556 49.2434 49.2384C49.4256 49.2126 49.6088 49.1889 49.7876 49.1576C49.9146 49.1361 50.036 49.107 50.1608 49.0811C50.325 49.0477 50.4914 49.0165 50.6521 48.9777C50.7769 48.9475 50.8961 48.912 51.0186 48.8786C51.1727 48.8377 51.3301 48.7978 51.4796 48.7515C51.5999 48.7149 51.7134 48.6728 51.8304 48.633C51.9754 48.5834 52.1227 48.536 52.2621 48.4832C52.379 48.4391 52.4892 48.3906 52.6016 48.3432C52.7343 48.2883 52.868 48.2344 52.9951 48.1762C53.1053 48.1256 53.2087 48.0706 53.3155 48.0168C53.4369 47.9554 53.5595 47.8961 53.6753 47.8315C53.7764 47.7744 53.8709 47.7151 53.9676 47.6559C54.0789 47.5891 54.1913 47.5234 54.2959 47.4534C54.388 47.3909 54.4724 47.3262 54.5601 47.2627C54.659 47.1905 54.7602 47.1194 54.8524 47.044C54.9344 46.9772 55.0086 46.9083 55.0851 46.8393C55.1717 46.7628 55.2593 46.6863 55.3392 46.6066C55.4111 46.5355 55.4741 46.4612 55.5404 46.3879C55.6135 46.3082 55.6866 46.2285 55.7518 46.1456C55.8125 46.0701 55.8642 45.9915 55.9182 45.9139C55.9766 45.831 56.0351 45.747 56.0857 45.6619C56.1329 45.5821 56.1711 45.5013 56.2116 45.4205C56.2554 45.3333 56.2993 45.246 56.3353 45.1577C56.3679 45.0758 56.3926 44.9918 56.4185 44.9078C56.4466 44.8173 56.4747 44.7279 56.4938 44.6374C56.5129 44.5523 56.5219 44.465 56.5331 44.3788C56.541 44.3196 56.5466 44.2592 56.55 44.2C56.5017 44.242 56.4432 44.2786 56.3937 44.3207C56.2273 44.4585 56.0553 44.5932 55.8743 44.7236C55.772 44.7968 55.6708 44.8701 55.5651 44.9412ZM55.5651 49.4912C55.3673 49.6226 55.1593 49.7486 54.9468 49.8714C54.8479 49.9285 54.7534 49.9878 54.6511 50.0427C54.3318 50.214 54.0013 50.3767 53.6539 50.5253C53.6404 50.5307 53.6269 50.535 53.6134 50.5404C53.2784 50.6826 52.9276 50.8119 52.5679 50.9326C52.4453 50.9735 52.3172 51.008 52.1912 51.0467C51.9315 51.1265 51.6707 51.2019 51.4009 51.2687C51.2514 51.3064 51.1007 51.3398 50.9478 51.3732C50.687 51.4313 50.4217 51.482 50.1518 51.5283C49.9956 51.5541 49.8393 51.5811 49.6796 51.6037C49.3885 51.6446 49.0917 51.677 48.7915 51.705C48.6487 51.7179 48.5104 51.7351 48.3665 51.7448C47.9213 51.7761 47.4705 51.7954 47.0107 51.7954C46.5823 51.7954 46.1573 51.7761 45.7335 51.7459C45.6064 51.7373 45.4805 51.7243 45.3535 51.7125C45.0466 51.6856 44.7408 51.65 44.4372 51.6069C44.3585 51.5962 44.2787 51.5918 44.2 51.58V53.6742C44.4125 53.713 44.6227 53.7582 44.8375 53.7873C45.0016 53.81 45.1657 53.8358 45.331 53.853C45.8853 53.9112 46.4451 53.95 47.0107 53.95C47.3311 53.95 47.6481 53.9403 47.9606 53.922C48.0652 53.9155 48.1664 53.9037 48.2698 53.8951C48.4767 53.8789 48.6847 53.8638 48.8882 53.8401C49.0085 53.8261 49.1254 53.8056 49.2434 53.7884C49.4256 53.7626 49.6088 53.7389 49.7876 53.7076C49.9146 53.6861 50.036 53.657 50.1608 53.6311C50.325 53.5977 50.4914 53.5665 50.6521 53.5277C50.7769 53.4975 50.8961 53.462 51.0186 53.4286C51.1727 53.3877 51.3301 53.3478 51.4796 53.3015C51.5999 53.2649 51.7134 53.2228 51.8304 53.183C51.9754 53.1334 52.1227 53.086 52.2621 53.0332C52.379 52.9891 52.4892 52.9406 52.6016 52.8932C52.7343 52.8383 52.868 52.7844 52.9951 52.7262C53.1053 52.6756 53.2087 52.6206 53.3155 52.5668C53.4369 52.5054 53.5595 52.4461 53.6753 52.3815C53.7764 52.3244 53.8709 52.2651 53.9676 52.2059C54.0789 52.1391 54.1913 52.0734 54.2959 52.0034C54.388 51.9409 54.4724 51.8762 54.5601 51.8127C54.659 51.7405 54.7602 51.6694 54.8524 51.594C54.9344 51.5272 55.0086 51.4583 55.0851 51.3893C55.1717 51.3128 55.2593 51.2363 55.3392 51.1566C55.4111 51.0855 55.4741 51.0112 55.5404 50.9379C55.6135 50.8582 55.6866 50.7785 55.7518 50.6956C55.8125 50.6201 55.8642 50.5415 55.9182 50.4639C55.9766 50.381 56.0351 50.297 56.0857 50.2119C56.1329 50.1321 56.1711 50.0513 56.2116 49.9705C56.2554 49.8833 56.2993 49.796 56.3353 49.7077C56.3679 49.6258 56.3926 49.5418 56.4185 49.4578C56.4466 49.3673 56.4747 49.2779 56.4938 49.1874C56.5129 49.1023 56.5219 49.015 56.5331 48.9288C56.541 48.8696 56.5466 48.8092 56.55 48.75C56.5017 48.792 56.4432 48.8286 56.3937 48.8707C56.2273 49.0085 56.0553 49.1432 55.8743 49.2736C55.772 49.3468 55.6708 49.4201 55.5651 49.4912ZM42.1945 49.1873C42.2122 49.1011 42.2222 49.0149 42.2333 48.9309C42.2411 48.8717 42.2467 48.8114 42.25 48.7522C42.2022 48.7942 42.1445 48.8308 42.0956 48.8728C41.9312 49.0106 41.7613 49.1453 41.5825 49.2756C41.4814 49.3488 41.3814 49.4221 41.277 49.4932C41.0815 49.6246 40.876 49.7495 40.6661 49.8723C40.5684 49.9294 40.4751 49.9886 40.374 50.0435C40.0586 50.2148 39.732 50.3774 39.3888 50.5261C39.3755 50.5314 39.3621 50.5357 39.3488 50.5411C39.0178 50.6833 38.6713 50.8125 38.3158 50.9332C38.1948 50.9741 38.0681 51.0086 37.9437 51.0473C37.6872 51.1271 37.4295 51.2024 37.1629 51.2692C37.0152 51.3069 36.8663 51.3403 36.7153 51.3737C36.4576 51.4319 36.1955 51.4825 35.9289 51.5288C35.7745 51.5546 35.6201 51.5816 35.4624 51.6042C35.1747 51.6451 34.8815 51.6774 34.5849 51.7054C34.4439 51.7184 34.3073 51.7356 34.1651 51.7453C33.7252 51.7765 33.2798 51.7959 32.8256 51.7959C32.3713 51.7959 31.9259 51.7765 31.4838 51.7431C31.3427 51.7334 31.205 51.7162 31.0651 51.7033C30.7685 51.6753 30.4753 51.644 30.1876 51.602C30.0299 51.5794 29.8755 51.5536 29.7211 51.5266C29.4545 51.4803 29.1924 51.4286 28.9347 51.3715C28.7837 51.3382 28.6348 51.3048 28.4871 51.2681C28.2205 51.2003 27.9617 51.1249 27.7063 51.0463C27.5819 51.0075 27.4552 50.973 27.3342 50.9321C26.9776 50.8126 26.6311 50.6822 26.2979 50.539C26.2856 50.5336 26.2734 50.5304 26.2612 50.525C25.918 50.3763 25.5914 50.2137 25.276 50.0425C25.1749 49.9875 25.0816 49.9283 24.9839 49.8712C24.7728 49.7484 24.5674 49.6235 24.3719 49.491C24.2675 49.421 24.1675 49.3478 24.0675 49.2745C23.8887 49.1442 23.7177 49.0096 23.5533 48.8706C23.5044 48.8297 23.4478 48.792 23.4 48.75C23.4044 48.8103 23.4089 48.8696 23.4167 48.9288C23.4278 49.015 23.4378 49.1022 23.4555 49.1873C23.4744 49.2788 23.5022 49.3682 23.53 49.4576C23.5555 49.5416 23.5799 49.6256 23.6121 49.7075C23.6477 49.7958 23.691 49.8831 23.7343 49.9703C23.7743 50.0511 23.8121 50.1329 23.8587 50.2116C23.9087 50.2966 23.9676 50.3807 24.0253 50.4647C24.0786 50.5422 24.1297 50.6198 24.1886 50.6952C24.253 50.7781 24.3263 50.8578 24.3974 50.9386C24.4618 51.0107 24.5252 51.085 24.5951 51.1561C24.674 51.2358 24.7606 51.3123 24.8462 51.3888C24.9217 51.4577 24.995 51.5266 25.0761 51.5934C25.1672 51.6688 25.2671 51.7399 25.3649 51.8121C25.4515 51.8767 25.5348 51.9413 25.6259 52.0027C25.7292 52.0727 25.8414 52.1384 25.9502 52.2052C26.0457 52.2644 26.139 52.3247 26.239 52.3807C26.3534 52.4454 26.4745 52.5046 26.5944 52.566C26.6999 52.6188 26.8021 52.6748 26.911 52.7254C27.0365 52.7836 27.1698 52.8374 27.2997 52.8923C27.4119 52.9386 27.5197 52.9882 27.6352 53.0323C27.774 53.0862 27.9184 53.1325 28.0617 53.1821C28.1772 53.2219 28.2894 53.2639 28.4082 53.3005C28.5571 53.3469 28.7126 53.3867 28.8658 53.4287C28.9858 53.461 29.1024 53.4966 29.2257 53.5267C29.3857 53.5655 29.55 53.5978 29.7133 53.6312C29.8366 53.656 29.9566 53.685 30.081 53.7077C30.2576 53.7389 30.4386 53.7626 30.6186 53.7884C30.7363 53.8057 30.8507 53.8261 30.9695 53.8401C31.1695 53.8638 31.375 53.8789 31.5804 53.8951C31.6826 53.9037 31.7826 53.9155 31.8859 53.922C32.1958 53.9403 32.509 53.95 32.8256 53.95C33.1421 53.95 33.4553 53.9403 33.7641 53.9209C33.8674 53.9145 33.9674 53.9026 34.0696 53.894C34.2739 53.8778 34.4794 53.8628 34.6805 53.8391C34.7993 53.8251 34.9148 53.8046 35.0314 53.7874C35.2114 53.7615 35.3924 53.7378 35.569 53.7066C35.6945 53.685 35.8145 53.656 35.9378 53.6301C36.1 53.5967 36.2643 53.5655 36.4232 53.5267C36.5465 53.4966 36.6642 53.461 36.7853 53.4276C36.9374 53.3867 37.0929 53.3469 37.2407 53.3005C37.3595 53.2639 37.4717 53.2219 37.5872 53.1821C37.7305 53.1325 37.876 53.0851 38.0137 53.0323C38.1292 52.9882 38.2381 52.9397 38.3492 52.8923C38.4802 52.8374 38.6124 52.7836 38.7379 52.7254C38.8468 52.6748 38.9489 52.6198 39.0545 52.566C39.1744 52.5046 39.2955 52.4454 39.4099 52.3807C39.5099 52.3237 39.6032 52.2644 39.6987 52.2052C39.8086 52.1384 39.9197 52.0727 40.023 52.0027C40.1141 51.9402 40.1974 51.8756 40.284 51.8121C40.3818 51.7399 40.4817 51.6688 40.5728 51.5934C40.6539 51.5266 40.7272 51.4577 40.8027 51.3888C40.8883 51.3123 40.9749 51.2358 41.0538 51.1561C41.1248 51.085 41.187 51.0107 41.2526 50.9375C41.3248 50.8578 41.397 50.7781 41.4614 50.6952C41.5214 50.6198 41.5725 50.5411 41.6258 50.4636C41.6835 50.3807 41.7413 50.2966 41.7913 50.2116C41.8379 50.1319 41.8757 50.0511 41.9157 49.9703C41.959 49.8831 42.0023 49.7958 42.0379 49.7075C42.0701 49.6256 42.0945 49.5416 42.12 49.4576C42.1478 49.3671 42.1756 49.2778 42.1945 49.1873ZM19.9344 45.4192C20.1065 45.3998 20.2806 45.3736 20.4527 45.3463C20.5688 45.3293 20.6839 45.3019 20.8 45.2814V40.0441C19.871 40.3993 19.0204 40.471 18.2634 40.2388C17.6387 40.0475 16.7968 39.5558 16.1892 38.3173C15.8796 38.0965 15.4968 37.7345 14.9108 37.1619C14.672 36.9286 14.3226 36.5894 14.1602 36.455C14.1108 36.4414 14.0613 36.43 14.0118 36.4209C13.486 36.3207 12.872 36.5859 12.4226 37.1073L9.1 40.973C9.3043 41.2131 9.50538 41.4579 9.72366 41.681C9.81936 41.7789 9.92043 41.8711 10.0194 41.9656C10.2796 42.2149 10.5484 42.4505 10.8247 42.6759C10.9634 42.7886 11.1011 42.9012 11.2441 43.0083C11.528 43.22 11.8226 43.4146 12.1204 43.6013C12.243 43.6776 12.3602 43.7629 12.4849 43.8358C12.8914 44.0714 13.3108 44.2797 13.7398 44.4664C13.8989 44.5359 14.0634 44.5916 14.2247 44.6542C14.528 44.7715 14.8344 44.8808 15.1462 44.9741C15.3226 45.0276 15.5 45.0754 15.6785 45.1198C16.0065 45.2018 16.3376 45.2678 16.6731 45.3224C16.8301 45.3475 16.9871 45.3793 17.1462 45.3987C17.6419 45.4602 18.143 45.5 18.6505 45.5C19.0763 45.5 19.5054 45.4659 19.9344 45.4192ZM5.91112 30.6255C5.8751 31.0299 5.85 31.4377 5.85 31.8511C5.85 32.2645 5.8751 32.6723 5.91112 33.0756C5.91985 33.1782 5.93186 33.2796 5.94277 33.3809C5.98207 33.7319 6.03336 34.0807 6.09885 34.4228C6.10868 34.4751 6.11522 34.5286 6.12614 34.581C6.20691 34.9754 6.30623 35.362 6.41974 35.7431C6.44484 35.8256 6.47322 35.9069 6.49942 35.9882C6.59328 36.2813 6.69806 36.5699 6.81048 36.854C6.85414 36.9632 6.89562 37.0735 6.94255 37.1816C7.06697 37.4746 7.20341 37.7599 7.34857 38.0418C7.43698 38.2111 7.53084 38.3783 7.62689 38.5454C7.71312 38.6958 7.80152 38.844 7.89211 38.99C7.8943 38.9933 7.89757 38.9967 7.89976 39L11.0126 35.5069C11.9796 34.4205 13.3265 33.908 14.6155 34.1397C14.8065 34.1732 14.9964 34.2222 15.1841 34.2868C15.5465 34.4116 15.8696 34.7069 16.6303 35.4211C16.9152 35.6885 17.366 36.113 17.5963 36.2891L18.035 36.3392L18.285 36.9387C18.632 37.7732 19.0304 37.8902 19.1625 37.9292C19.7366 38.1019 20.684 37.7833 21.77 37.0568C21.7743 37.0479 21.7787 37.0401 21.7831 37.0312C21.8518 36.8963 21.9173 36.7593 21.997 36.6267C22.0592 36.5231 22.1334 36.4239 22.2022 36.3225C22.2862 36.1977 22.367 36.0718 22.4609 35.9515C22.5384 35.8512 22.6268 35.7554 22.7108 35.6584C22.8101 35.5425 22.9062 35.4256 23.0142 35.3141C23.1059 35.2183 23.2074 35.1292 23.3057 35.0367C23.4192 34.9308 23.5305 34.8228 23.6517 34.7202C23.7575 34.6311 23.871 34.5475 23.9824 34.4618C24.1101 34.3637 24.2345 34.2656 24.3687 34.1721C24.4419 34.1208 24.5183 34.0718 24.5936 34.0216C25.9273 31.3207 25.1775 28.5118 24.7529 27.3452C23.9998 27.4321 22.7687 27.8711 22.5067 28.2031L21.9588 29.7853L20.7909 28.5586C19.9822 27.8076 18.9398 27.3942 17.856 27.3942C17.2001 27.3942 16.7678 27.8555 16.2265 28.5029C15.9056 28.8895 15.6022 29.255 15.1492 29.4154C14.7803 29.5458 14.3917 29.6137 13.9955 29.6204C12.9248 29.6149 11.8541 29.1313 11.0486 28.2276L7.89976 24.7C7.89757 24.7033 7.8943 24.7078 7.89211 24.7111C7.79388 24.8682 7.69893 25.0265 7.60724 25.188C7.5232 25.3362 7.43916 25.4833 7.36058 25.6337C7.21105 25.9245 7.07025 26.2209 6.94036 26.524C6.89562 26.6287 6.85414 26.7357 6.81157 26.8427C6.69697 27.1301 6.59219 27.4209 6.49723 27.7173C6.47213 27.7976 6.44375 27.8767 6.41974 27.9569C6.30623 28.338 6.20691 28.7268 6.12614 29.1213C6.11522 29.1725 6.10868 29.2249 6.09885 29.2772C6.03336 29.6204 5.98207 29.9681 5.94277 30.3202C5.93186 30.4216 5.91985 30.523 5.91112 30.6255ZM24.0698 44.7245C23.8909 44.5942 23.7199 44.4596 23.5533 44.3206C23.5044 44.2797 23.4478 44.242 23.4 44.2C23.4044 44.2603 23.4089 44.3195 23.4167 44.3788C23.4278 44.465 23.4378 44.5522 23.4555 44.6373C23.4744 44.7288 23.5022 44.8182 23.53 44.9076C23.5555 44.9916 23.5799 45.0756 23.6121 45.1575C23.6477 45.2458 23.691 45.3331 23.7343 45.4203C23.7743 45.5011 23.8121 45.5829 23.8587 45.6616C23.9087 45.7466 23.9676 45.8307 24.0253 45.9147C24.0786 45.9922 24.1297 46.0698 24.1886 46.1452C24.253 46.2281 24.3263 46.3078 24.3974 46.3886C24.4618 46.4607 24.5252 46.535 24.5951 46.6061C24.674 46.6858 24.7606 46.7623 24.8462 46.8388C24.9217 46.9077 24.995 46.9766 25.0761 47.0434C25.1672 47.1188 25.2671 47.1899 25.3649 47.2621C25.4515 47.3267 25.5348 47.3913 25.6259 47.4527C25.7292 47.5227 25.8414 47.5884 25.9502 47.6552C26.0457 47.7144 26.139 47.7747 26.239 47.8307C26.3534 47.8954 26.4745 47.9546 26.5944 48.016C26.6999 48.0688 26.8021 48.1248 26.911 48.1754C27.0365 48.2336 27.1698 48.2874 27.2997 48.3423C27.4119 48.3886 27.5197 48.4382 27.6352 48.4823C27.774 48.5362 27.9184 48.5825 28.0617 48.6321C28.1772 48.6719 28.2894 48.7139 28.4082 48.7505C28.5571 48.7969 28.7126 48.8367 28.8658 48.8787C28.9858 48.911 29.1024 48.9466 29.2257 48.9767C29.3857 49.0155 29.55 49.0478 29.7133 49.0812C29.8366 49.106 29.9566 49.135 30.081 49.1577C30.2576 49.1889 30.4386 49.2126 30.6186 49.2384C30.7363 49.2557 30.8507 49.2761 30.9695 49.2901C31.1695 49.3138 31.375 49.3289 31.5804 49.3451C31.6826 49.3537 31.7826 49.3655 31.8859 49.372C32.1958 49.3903 32.509 49.4 32.8256 49.4C33.1421 49.4 33.4553 49.3903 33.7641 49.3731C33.8674 49.3666 33.9674 49.3548 34.0696 49.3461C34.2739 49.33 34.4794 49.3149 34.6805 49.2912C34.7993 49.2772 34.9148 49.2567 35.0314 49.2395C35.2114 49.2137 35.3924 49.19 35.569 49.1587C35.6945 49.1372 35.8145 49.1081 35.9378 49.0823C36.1 49.0489 36.2643 49.0176 36.4232 48.9789C36.5465 48.9487 36.6642 48.9132 36.7853 48.8798C36.9374 48.8389 37.0929 48.799 37.2407 48.7527C37.3595 48.7161 37.4717 48.6741 37.5872 48.6342C37.7305 48.5847 37.876 48.5373 38.0137 48.4845C38.1292 48.4403 38.2381 48.3919 38.3492 48.3445C38.4802 48.2896 38.6124 48.2357 38.7379 48.1775C38.8468 48.1269 38.9489 48.072 39.0545 48.0181C39.1744 47.9568 39.2955 47.8975 39.4099 47.8329C39.5099 47.7758 39.6032 47.7166 39.6987 47.6573C39.8086 47.5906 39.9197 47.5249 40.023 47.4548C40.1141 47.3924 40.1974 47.3278 40.284 47.2642C40.3818 47.192 40.4817 47.121 40.5728 47.0456C40.6539 46.9788 40.7272 46.9099 40.8027 46.8409C40.8883 46.7645 40.9749 46.688 41.0538 46.6083C41.1248 46.5372 41.187 46.4629 41.2526 46.3896C41.3248 46.3099 41.397 46.2302 41.4614 46.1473C41.5214 46.0719 41.5725 45.9933 41.6258 45.9157C41.6835 45.8328 41.7413 45.7488 41.7913 45.6637C41.8379 45.584 41.8757 45.5032 41.9157 45.4225C41.959 45.3352 42.0023 45.248 42.0379 45.1596C42.0701 45.0778 42.0945 44.9938 42.12 44.9098C42.1478 44.8193 42.1756 44.7299 42.1945 44.6394C42.2133 44.5543 42.2222 44.4671 42.2333 44.3809C42.2411 44.3217 42.2467 44.2614 42.25 44.2022C42.2022 44.2442 42.1445 44.2808 42.0956 44.3228C41.9312 44.4606 41.7613 44.5953 41.5825 44.7256C41.4814 44.7988 41.3814 44.8721 41.277 44.9432C41.0815 45.0746 40.876 45.1995 40.6661 45.3223C40.5684 45.3794 40.4751 45.4386 40.374 45.4935C40.0586 45.6648 39.732 45.8274 39.3888 45.9761C39.3755 45.9814 39.3621 45.9857 39.3488 45.9911C39.0178 46.1333 38.6713 46.2626 38.3158 46.3832C38.1948 46.4241 38.0681 46.4586 37.9437 46.4973C37.6872 46.577 37.4295 46.6524 37.1629 46.7192C37.0152 46.7569 36.8663 46.7903 36.7153 46.8237C36.4576 46.8819 36.1955 46.9325 35.9289 46.9788C35.7745 47.0046 35.6201 47.0316 35.4624 47.0542C35.1747 47.0951 34.8815 47.1274 34.5849 47.1554C34.4439 47.1684 34.3073 47.1856 34.1651 47.1953C33.7252 47.2265 33.2798 47.2459 32.8256 47.2459C32.3713 47.2459 31.9259 47.2265 31.486 47.1931C31.345 47.1834 31.2072 47.1662 31.0673 47.1533C30.7707 47.1253 30.4775 47.094 30.1898 47.052C30.0321 47.0294 29.8777 47.0036 29.7233 46.9766C29.4567 46.9303 29.1946 46.8786 28.9369 46.8215C28.7859 46.7882 28.637 46.7548 28.4893 46.7181C28.2227 46.6503 27.9639 46.5749 27.7085 46.4963C27.5841 46.4575 27.4575 46.423 27.3364 46.3821C26.9798 46.2626 26.6333 46.1322 26.3001 45.989C26.2879 45.9836 26.2757 45.9804 26.2634 45.975C25.9202 45.8263 25.5937 45.6637 25.2782 45.4925C25.1771 45.4375 25.0838 45.3783 24.9861 45.3212C24.7751 45.1984 24.5696 45.0735 24.3741 44.941C24.2697 44.871 24.1697 44.7978 24.0698 44.7245ZM30.9696 32.3632C31.1505 32.3486 31.3314 32.3374 31.5144 32.3285C31.6277 32.3229 31.7367 32.3105 31.85 32.3072V32.2993C31.85 29.6577 31.0949 27.1987 29.8125 25.1185C29.2394 24.1894 28.5672 23.3522 27.8208 22.6102C27.7238 22.5138 27.6214 22.423 27.5212 22.33C27.2575 22.0846 26.9851 21.8526 26.7051 21.6306C26.5645 21.5197 26.4251 21.4087 26.2802 21.3034C25.9925 21.0949 25.694 20.9033 25.3922 20.7195C25.268 20.6444 25.1492 20.5603 25.0228 20.4886C24.611 20.2566 24.186 20.0515 23.7513 19.8677C23.59 19.7993 23.4233 19.7444 23.2599 19.6827C22.9527 19.5673 22.6421 19.4597 22.3262 19.3678C22.1475 19.3151 21.9677 19.268 21.7868 19.2243C21.4545 19.1436 21.1189 19.0786 20.779 19.0248C20.6199 19.0002 20.4608 18.9688 20.2996 18.9497C19.7973 18.8892 19.2896 18.85 18.7753 18.85C18.261 18.85 17.7533 18.8892 17.2521 18.9497C17.0908 18.9688 16.9328 18.9991 16.7727 19.0248C16.4327 19.0786 16.0971 19.1436 15.7648 19.2243C15.584 19.2692 15.4042 19.3162 15.2255 19.3678C14.9095 19.4597 14.599 19.5673 14.2917 19.6827C14.1272 19.7444 13.9605 19.7993 13.8004 19.8677C13.3656 20.0526 12.9407 20.2577 12.5288 20.4886C12.4025 20.5592 12.2837 20.6444 12.1595 20.7195C11.8566 20.9033 11.5591 21.0949 11.2715 21.3034C11.1266 21.4087 10.9871 21.5197 10.8466 21.6306C10.5665 21.8526 10.2931 22.0846 10.0305 22.33C9.93024 22.423 9.82783 22.5138 9.73085 22.6102C9.50967 22.8288 9.30702 23.0697 9.1 23.3062L12.5016 27.146C12.884 27.5786 13.3297 27.7983 13.7971 27.8151C13.9224 27.814 14.0455 27.7972 14.1599 27.7669C14.2329 27.6918 14.3081 27.5921 14.3974 27.4845C14.9466 26.8165 15.9719 25.5747 17.6857 25.5747C18.9594 25.5747 20.1928 25.9569 21.2475 26.6663C22.5277 25.7517 24.6818 25.3382 25.6177 25.6195L26.0666 25.7551L26.2802 26.1832C26.3608 26.3458 27.8905 29.4895 27.1518 33.15C27.1714 33.1433 27.191 33.1377 27.2096 33.1309C27.3817 33.0715 27.555 33.0133 27.7326 32.9606C27.8905 32.9135 28.0529 32.8709 28.2152 32.8283C28.3961 32.7801 28.5781 32.7342 28.7644 32.6927C28.9311 32.6546 29.101 32.6232 29.271 32.5907C29.4606 32.5549 29.6513 32.5212 29.8452 32.4921C30.0195 32.4663 30.196 32.445 30.3726 32.4237C30.5698 32.4013 30.7681 32.38 30.9696 32.3632ZM7.8 42.9H7.80108V49.8653C11.2523 50.138 14.0156 52.988 14.28 56.55H20.8V47.4444C20.7144 47.4567 20.6288 47.4556 20.5433 47.4668C20.2584 47.5059 19.9778 47.5204 19.6962 47.5416C19.3939 47.564 19.0917 47.5953 18.7917 47.5986C18.7386 47.5998 18.6844 47.6087 18.6324 47.6087C18.2977 47.6087 17.9706 47.5785 17.6423 47.5562C17.4636 47.545 17.2827 47.5461 17.1051 47.5282C16.5678 47.4724 16.0402 47.3852 15.5203 47.2734C15.3145 47.2287 15.1151 47.165 14.9115 47.1113C14.5822 47.0253 14.254 46.9381 13.9344 46.8297C13.708 46.7537 13.487 46.6643 13.265 46.5771C12.9768 46.4642 12.6919 46.3469 12.4124 46.2161C12.1882 46.1122 11.9683 46.0015 11.7495 45.8864C11.4787 45.7444 11.2155 45.5913 10.9555 45.4326C10.7475 45.3063 10.5406 45.1823 10.3391 45.0459C10.0488 44.8492 9.7715 44.6357 9.49528 44.42C9.34362 44.3015 9.18655 44.1931 9.03923 44.068C8.6211 43.7148 8.22463 43.3381 7.8455 42.9425C7.83141 42.9279 7.81408 42.9156 7.8 42.9ZM45.5 1.95H44.2V18.85C44.6251 18.7922 45.0593 18.7466 45.5 18.7121V1.95ZM42.25 1.95H40.95V19.5C41.3686 19.3575 41.8015 19.2282 42.25 19.111V1.95ZM39 2.6H37.7V22.1C38.0978 21.7931 38.5255 21.5004 39 21.2317V2.6ZM1.95 61.75H22.7649C22.0146 61.0202 21.4577 60.1941 21.1173 59.3026C21.0831 59.214 21.0477 59.1266 21.0179 59.0368C20.9814 58.9272 20.9516 58.8165 20.9228 58.7046C20.8985 58.6127 20.8742 58.5208 20.8543 58.4278H11.7646L11.8718 57.2229C11.8839 57.0723 11.895 56.9206 11.895 56.7667C11.895 54.0192 9.664 51.7833 6.9225 51.7833C6.77001 51.7833 6.62083 51.7933 6.47166 51.8066L5.265 51.9173V39.7945C5.25064 39.7702 5.23516 39.7458 5.21859 39.7203C5.07162 39.4723 4.92687 39.2231 4.79427 38.9662C4.6241 38.6384 4.46056 38.3073 4.3147 37.9695C4.26055 37.8455 4.21635 37.717 4.16552 37.5908C4.03734 37.2696 3.9158 36.9463 3.80972 36.6174C3.76552 36.479 3.72573 36.3394 3.68485 36.1999C3.58982 35.8743 3.50473 35.5465 3.4318 35.2143C3.39976 35.067 3.36771 34.9197 3.33898 34.7713C3.27379 34.428 3.22296 34.0825 3.18097 33.7337C3.16439 33.5942 3.14229 33.458 3.12903 33.3173C3.08373 32.8323 3.055 32.3439 3.055 31.85C3.055 31.3561 3.08373 30.8677 3.13014 30.3827C3.1434 30.242 3.1655 30.1058 3.18208 29.9663C3.22407 29.6175 3.27489 29.272 3.34009 28.9287C3.36771 28.7803 3.39976 28.633 3.43291 28.4857C3.50584 28.1535 3.59092 27.8257 3.68595 27.5001C3.72684 27.3606 3.76662 27.221 3.81082 27.0826C3.9169 26.7537 4.03734 26.4303 4.16663 26.1092C4.21746 25.983 4.26166 25.8545 4.3158 25.7305C4.46166 25.3927 4.6241 25.0616 4.79537 24.7338C4.92908 24.4769 5.07273 24.2277 5.2197 23.9797C5.23517 23.9553 5.25064 23.9298 5.265 23.9055V11.7827L6.47166 11.8934C6.62083 11.9067 6.77001 11.9167 6.9225 11.9167C9.664 11.9167 11.895 9.68081 11.895 6.93333C11.895 6.7794 11.8839 6.62769 11.8718 6.47708L11.7646 5.27222H25.2854L25.1782 6.47708C25.166 6.62769 25.155 6.7794 25.155 6.93333C25.155 9.68081 27.386 11.9167 30.1275 11.9167C30.28 11.9167 30.4292 11.9067 30.5783 11.8934L31.785 11.7827V23.9055C33.1784 26.2321 33.995 28.9442 33.995 31.85C33.995 31.8788 33.9917 31.9054 33.9906 31.9342C34.3663 31.9696 34.7342 32.0139 35.0967 32.0715H35.1V1.95H1.95V61.75ZM27.1287 61.9208C28.7257 62.6233 30.7051 63.05 32.8244 63.05C35.3295 63.05 37.6445 62.4595 39.356 61.5135L39.3793 61.5006C39.436 61.4704 39.486 61.4359 39.5405 61.4036C39.8128 61.2441 40.0673 61.0771 40.3018 60.9025L40.3684 60.8541C41.1475 60.2593 41.7088 59.5848 42.0088 58.8682L42.0111 58.8628C42.0955 58.6603 42.1578 58.4642 42.2011 58.2713C42.2067 58.2444 42.2089 58.2163 42.2133 58.1883C42.2344 58.0752 42.2422 57.9631 42.25 57.8522C42.2033 57.8942 42.1478 57.9297 42.1 57.9707C41.9355 58.1086 41.7654 58.2433 41.5865 58.3737C41.4854 58.4469 41.3853 58.5202 41.2809 58.5913C41.0853 58.7228 40.8797 58.8478 40.6696 58.9706C40.5718 59.0277 40.4785 59.087 40.3773 59.1419C40.0617 59.3132 39.735 59.4759 39.3915 59.6246C39.3782 59.63 39.3649 59.6343 39.3515 59.6397C39.0203 59.7819 38.6736 59.9113 38.318 60.0319C38.1968 60.0729 38.0701 60.1074 37.9457 60.1461C37.6889 60.2259 37.4311 60.3013 37.1644 60.3681C37.0165 60.4058 36.8676 60.4392 36.7165 60.4726C36.4586 60.5308 36.1964 60.5815 35.9296 60.6278C35.7751 60.6536 35.6207 60.6806 35.4628 60.7032C35.175 60.7442 34.8816 60.7765 34.5849 60.8045C34.4437 60.8174 34.307 60.8347 34.1648 60.8444C33.7247 60.8756 33.279 60.895 32.8244 60.895C32.3699 60.895 31.9242 60.8756 31.4852 60.8422C31.3441 60.8325 31.2063 60.8153 31.0663 60.8023C30.7695 60.7743 30.4761 60.7431 30.1883 60.7011C30.0305 60.6784 29.876 60.6526 29.7215 60.6256C29.4548 60.5793 29.1925 60.5276 28.9346 60.4705C28.7835 60.4371 28.6346 60.4037 28.4868 60.367C28.22 60.2991 27.9611 60.2237 27.7055 60.1451C27.581 60.1063 27.4543 60.0718 27.3331 60.0308C26.9764 59.9112 26.6296 59.7809 26.2962 59.6376C26.284 59.6322 26.2718 59.6289 26.2596 59.6236C25.9161 59.4749 25.5894 59.3122 25.2738 59.1408C25.1726 59.0859 25.0793 59.0266 24.9815 58.9695C24.7703 58.8467 24.5647 58.7217 24.3691 58.5892C24.2646 58.5191 24.1646 58.4459 24.0646 58.3726C23.8857 58.2422 23.7145 58.1075 23.55 57.9685C23.5022 57.9276 23.4467 57.8909 23.4 57.85C23.4067 57.9599 23.4167 58.0709 23.4356 58.1797C23.4445 58.2293 23.4467 58.281 23.4578 58.3306C23.5022 58.5245 23.5656 58.7163 23.6467 58.9049C23.6678 58.9555 23.6978 59.0029 23.7223 59.0525C23.7879 59.1882 23.8612 59.3229 23.9457 59.4555C23.9946 59.5309 24.0502 59.6063 24.1046 59.6807C24.178 59.782 24.2569 59.8811 24.3413 59.9791C24.4136 60.0621 24.4869 60.1451 24.5658 60.2259C24.647 60.3088 24.7359 60.3907 24.8248 60.4715C24.9192 60.5578 25.0104 60.6439 25.1126 60.7269C25.1849 60.7862 25.2682 60.8411 25.3449 60.8982C25.5716 61.0674 25.815 61.229 26.0751 61.382C26.1673 61.437 26.2573 61.4919 26.354 61.5447C26.4985 61.6234 26.6497 61.6977 26.8019 61.771C26.9086 61.8217 27.0175 61.8723 27.1287 61.9208ZM47.242 63.05C52.1891 63.05 56.3834 60.6861 56.55 57.85C56.4996 57.8952 56.4393 57.935 56.3867 57.9801C56.2246 58.1178 56.0569 58.2522 55.8805 58.3824C55.7808 58.4555 55.6822 58.5286 55.5792 58.5996C55.3864 58.7308 55.1837 58.8556 54.9766 58.9782C54.8801 59.0352 54.7881 59.0943 54.6884 59.1492C54.3772 59.3202 54.0551 59.4826 53.7165 59.631C53.7034 59.6364 53.6902 59.6407 53.6771 59.6461C53.3505 59.788 53.0087 59.9171 52.6581 60.0375C52.5386 60.0784 52.4137 60.1128 52.291 60.1516C52.0379 60.2311 51.7837 60.3064 51.5207 60.3731C51.375 60.4107 51.2282 60.4441 51.0792 60.4774C50.825 60.5355 50.5664 60.586 50.3034 60.6323C50.1511 60.6581 49.9988 60.685 49.8432 60.7076C49.5594 60.7484 49.2702 60.7807 48.9776 60.8087C48.8385 60.8216 48.7037 60.8388 48.5634 60.8485C48.1295 60.8797 47.6902 60.899 47.242 60.899C46.6931 60.899 46.1518 60.8657 45.6149 60.8162C45.4998 60.8054 45.3848 60.7958 45.2698 60.7829C44.7482 60.7248 44.2321 60.6463 43.7259 60.5409C43.7062 60.5366 43.6865 60.5355 43.6667 60.5312C43.303 61.127 42.822 61.6809 42.25 62.1864C43.738 62.7478 45.456 63.05 47.242 63.05Z" fill="#225378"/>
</svg>
