<svg width="59" height="65" viewBox="0 0 59 65" fill="none" xmlns="http://www.w3.org/2000/svg">
<path d="M55.029 8.66667C56.9432 8.66667 58.5 10.2234 58.5 12.1366V42.0301C58.5 43.9432 56.9432 45.5 55.029 45.5H52H45.5H43.3333V58.7892C43.3333 62.2137 40.547 65 37.1226 65H6.21075C2.78633 65 0 62.2137 0 58.7882V6.21075C0 2.78633 2.78633 0 6.21075 0H37.1226C40.547 0 43.3333 2.78633 43.3333 6.21075V8.66667H45.5H52H55.029ZM41.1667 58.7892V45.5V8.66667V6.21075C41.1667 3.98125 39.3521 2.16667 37.1226 2.16667H6.21075C3.98125 2.16667 2.16667 3.98125 2.16667 6.21075V58.7892C2.16667 61.0187 3.98125 62.8333 6.21075 62.8333H37.1226C39.3521 62.8333 41.1667 61.0187 41.1667 58.7892ZM43.3333 43.3333H45.5V10.8333H43.3333V43.3333ZM47.6667 43.3333H49.8333V10.8333H47.6667V43.3333ZM56.3333 42.0301V12.1366C56.3333 11.4183 55.7483 10.8333 55.029 10.8333H52V43.3333H55.029C55.7483 43.3333 56.3333 42.7483 56.3333 42.0301ZM54.275 16.25C53.7365 16.25 53.3 15.8135 53.3 15.275C53.3 14.7365 53.7365 14.3 54.275 14.3C54.8135 14.3 55.25 14.7365 55.25 15.275C55.25 15.8135 54.8135 16.25 54.275 16.25ZM54.275 21.45C53.7365 21.45 53.3 21.0135 53.3 20.475C53.3 19.9365 53.7365 19.5 54.275 19.5C54.8135 19.5 55.25 19.9365 55.25 20.475C55.25 21.0135 54.8135 21.45 54.275 21.45ZM5.2 24.05V9.75H37.7V24.05H5.2ZM7.36667 11.95V21.85H35.5333V11.95H7.36667ZM11.9437 7.15H5.60625C5.0232 7.15 4.55 6.71417 4.55 6.175C4.55 5.63582 5.0232 5.2 5.60625 5.2H11.9437C12.5268 5.2 13 5.63582 13 6.175C13 6.71417 12.5268 7.15 11.9437 7.15ZM6.5 33.8V26H14.95V33.8H6.5ZM8.6125 28.2286V31.5714H12.8375V28.2286H8.6125ZM17.55 33.8V26H26V33.8H17.55ZM19.6625 28.2286V31.5714H23.8875V28.2286H19.6625ZM27.95 33.8V26H36.4V33.8H27.95ZM30.0625 28.2286V31.5714H34.2875V28.2286H30.0625ZM6.5 42.25V34.45H14.95V42.25H6.5ZM8.6125 36.6786V40.0214H12.8375V36.6786H8.6125ZM17.55 42.25V34.45H26V42.25H17.55ZM19.6625 36.6786V40.0214H23.8875V36.6786H19.6625ZM27.95 42.25V34.45H36.4V42.25H27.95ZM30.0625 36.6786V40.0214H34.2875V36.6786H30.0625ZM6.5 51.35V43.55H14.95V51.35H6.5ZM8.6125 45.7786V49.1214H12.8375V45.7786H8.6125ZM17.55 51.35V43.55H26V51.35H17.55ZM19.6625 45.7786V49.1214H23.8875V45.7786H19.6625ZM6.5 60.45V52.65H14.95V60.45H6.5ZM8.6125 54.8786V58.2214H12.8375V54.8786H8.6125ZM17.55 60.45V52.65H26V60.45H17.55ZM19.6625 54.8786V58.2214H23.8875V54.8786H19.6625ZM27.95 61.1V43.55H36.4V61.1H27.95ZM30.0625 45.7437V58.9062H34.2875V45.7437H30.0625ZM18.8306 13.0844C19.0959 13.197 19.3072 13.4143 19.4166 13.6874C19.4708 13.8233 19.5 13.9682 19.5 14.1131V19.6855C19.5 20.3018 19.0147 20.8 18.4168 20.8C17.8188 20.8 17.3335 20.3018 17.3335 19.6855V16.3421C17.0562 16.3421 16.7789 16.2328 16.5677 16.0155C16.1441 15.5798 16.1441 14.8754 16.5677 14.4396L17.6498 13.3263C17.7506 13.2226 17.8697 13.1413 18.003 13.0844C18.2673 12.9719 18.5662 12.9719 18.8306 13.0844ZM28.5806 13.0844C28.8459 13.197 29.0572 13.4143 29.1666 13.6874C29.2208 13.8233 29.25 13.9682 29.25 14.1131V19.6855C29.25 20.3018 28.7647 20.8 28.1668 20.8C27.5688 20.8 27.0835 20.3018 27.0835 19.6855V16.3421C26.8062 16.3421 26.5289 16.2328 26.3177 16.0155C25.8941 15.5798 25.8941 14.8754 26.3177 14.4396L27.3998 13.3263C27.5006 13.2226 27.6197 13.1413 27.753 13.0844C28.0173 12.9719 28.3162 12.9719 28.5806 13.0844ZM33.1306 13.0844C33.396 13.197 33.6072 13.4143 33.7166 13.6874C33.7708 13.8233 33.8 13.9682 33.8 14.1131V19.6855C33.8 20.3018 33.3147 20.8 32.7168 20.8C32.1188 20.8 31.6335 20.3018 31.6335 19.6855V16.3421C31.3562 16.3421 31.0789 16.2328 30.8677 16.0155C30.4441 15.5798 30.4441 14.8754 30.8677 14.4396L31.9498 13.3263C32.0506 13.2226 32.1697 13.1413 32.303 13.0844C32.5673 12.9719 32.8662 12.9719 33.1306 13.0844ZM22.8508 17.8677C23.2743 17.4441 23.9589 17.4441 24.3824 17.8677C24.8059 18.2912 24.8059 18.9758 24.3824 19.3994L23.2992 20.4826C23.088 20.6938 22.8107 20.8 22.5334 20.8C22.2561 20.8 21.9788 20.6938 21.7676 20.4826C21.3441 20.0591 21.3441 19.3745 21.7676 18.9509L22.8508 17.8677Z" fill="#EB7F00"/>
</svg>
