<svg width="95" height="65" viewBox="0 0 95 65" fill="none" xmlns="http://www.w3.org/2000/svg">
<path d="M94.2029 44.5513C94.2029 48.5781 90.9011 51.8546 86.8433 51.8546H79.1013C80.0378 53.2055 80.5876 54.8409 80.5876 56.6011C80.5876 58.3621 80.0378 59.9968 79.1013 61.3483H92.363C93.3792 61.3483 94.2029 62.1657 94.2029 63.1742C94.2029 64.1819 93.3792 65 92.363 65H52.1511C51.1356 65 50.3112 64.1819 50.3112 63.1742C50.3112 62.1657 51.1356 61.3483 52.1511 61.3483H65.1468C64.2104 59.9968 63.6605 58.3621 63.6605 56.6011C63.6605 54.8409 64.2104 53.2055 65.1468 51.8546L34.4529 51.8539C35.39 53.2055 35.9399 54.8402 35.9399 56.6011C35.9399 58.3621 35.3893 59.9968 34.4529 61.3483H38.7924C39.8087 61.3483 40.6323 62.1657 40.6323 63.1742C40.6323 64.1826 39.8087 65 38.7924 65H1.8399C0.823643 65 0 64.1826 0 63.1742C0 62.1657 0.823643 61.3483 1.8399 61.3483H7.25179C6.3146 59.9968 5.76478 58.3621 5.76478 56.6011C5.76478 54.8402 6.3146 53.2055 7.25179 51.8539H1.8399C0.823643 51.8539 0 51.0366 0 50.0281V1.82584C0 0.81735 0.823643 0 1.8399 0H64.3965C65.4128 0 66.2364 0.81735 66.2364 1.82584V10.2254H75.2253C76.2085 10.2254 77.1321 10.6049 77.8271 11.2945L93.6639 27.0075C94.0088 27.3498 94.2029 27.8141 94.2029 28.2984V44.5513ZM90.4348 30.1449V29.2443L87.5849 26.3768L83.8406 30.1449H90.4348ZM85.7246 23.869L75.4255 14.1304H75.3623V26.5095C75.3623 28.478 77.0233 30.0831 79.0896 30.1449L85.7246 23.869ZM71.2353 14.1304H65.942V48.0435H86.7238C88.7699 48.0435 90.4348 46.4249 90.4348 44.4357V40.947H84.6827C83.6578 40.947 82.8272 40.1395 82.8272 39.1431C82.8272 38.1475 83.6578 37.3393 84.6827 37.3393H90.4348V33.6117H78.6574C74.5644 33.6117 71.2353 30.3746 71.2353 26.3962V14.1304ZM3.76812 3.76812V48.0435H63.1159V3.76812H3.76812ZM9.42029 56.5217C9.42029 59.1188 11.5333 61.2319 14.1304 61.2319C16.7275 61.2319 18.8406 59.1188 18.8406 56.5217C18.8406 53.9246 16.7275 51.8116 14.1304 51.8116C11.5333 51.8116 9.42029 53.9246 9.42029 56.5217ZM32.029 56.5217C32.029 53.9246 29.9159 51.8116 27.3188 51.8116C24.7217 51.8116 22.6087 53.9246 22.6087 56.5217C22.6087 59.1188 24.7217 61.2319 27.3188 61.2319C29.9159 61.2319 32.029 59.1188 32.029 56.5217ZM77.2464 56.5214C77.2464 53.9312 75.1446 51.8229 72.5575 51.8116H72.5157C69.9278 51.8229 67.8261 53.9312 67.8261 56.5214C67.8261 59.1166 69.9356 61.2276 72.5292 61.2319H72.5433C75.1369 61.2276 77.2464 59.1166 77.2464 56.5214ZM46.1715 61.2319C47.2055 61.2319 48.0435 62.0753 48.0435 63.1159C48.0435 64.1566 47.2055 65 46.1715 65H46.1474C45.1134 65 44.2754 64.1566 44.2754 63.1159C44.2754 62.0753 45.1134 61.2319 46.1474 61.2319H46.1715ZM78.1884 39.5652C77.6931 39.5652 77.2074 39.3636 76.8563 39.0125C76.506 38.6607 76.3043 38.1765 76.3043 37.6812C76.3043 37.1837 76.506 36.6994 76.8563 36.3469C77.2074 35.9965 77.6931 35.7971 78.1884 35.7971C78.6844 35.7971 79.1702 35.9965 79.5205 36.3469C79.8708 36.6972 80.0725 37.1837 80.0725 37.6812C80.0725 38.1765 79.8708 38.6622 79.5205 39.0125C79.1702 39.3636 78.6844 39.5652 78.1884 39.5652ZM47.1262 42.3913H8.45347C7.42652 42.3913 6.5942 41.5822 6.5942 40.5839C6.5942 39.5856 7.42652 38.7765 8.45347 38.7765H17.0061V28.6552H13.5047C12.4778 28.6552 11.6455 27.8461 11.6455 26.8478C11.6455 25.8495 12.4778 25.0404 13.5047 25.0404H17.0061V13.1117C17.0061 12.1134 17.8384 11.3043 18.8654 11.3043H47.1262C48.1532 11.3043 48.9855 12.1134 48.9855 13.1117V40.5839C48.9855 41.5822 48.1532 42.3913 47.1262 42.3913ZM35.7971 15.0725H30.1449V20.7246L31.554 19.4326C31.9467 19.0717 32.4593 18.8919 32.971 18.8919C33.4828 18.8919 33.9953 19.0717 34.388 19.4326L35.7971 20.7246V15.0725ZM20.7246 15.0725V38.6232H45.2174V15.0725H39.2798V24.7069C39.2798 25.4261 38.8304 26.0756 38.1404 26.353C37.9091 26.4457 37.6656 26.491 37.425 26.491C36.9466 26.491 36.4755 26.3133 36.1218 25.9774L32.971 22.9903L29.821 25.9774C29.2883 26.4826 28.4924 26.6304 27.8017 26.353C27.1117 26.0749 26.6623 25.4261 26.6623 24.7069V15.0725H20.7246ZM37.5634 34.8551C36.5878 34.8551 35.7971 34.0117 35.7971 32.971C35.7971 31.9304 36.5878 31.087 37.5634 31.087H42.5091C43.4847 31.087 44.2754 31.9304 44.2754 32.971C44.2754 34.0117 43.4847 34.8551 42.5091 34.8551H37.5634Z" fill="#EB7F00"/>
</svg>
