<svg width="27" height="29" viewBox="0 0 27 29" fill="none" xmlns="http://www.w3.org/2000/svg">
<path fill-rule="evenodd" clip-rule="evenodd" d="M10.6875 10.6547H7.3125C6.07162 10.6547 5.0625 9.59276 5.0625 8.28697C5.0625 6.91193 6.19988 5.7997 7.5105 5.92874C7.97344 4.52054 9.22894 3.55156 10.6875 3.55156C12.5488 3.55156 14.0625 5.14443 14.0625 7.10312C14.0625 9.0618 12.5488 10.6547 10.6875 10.6547ZM7.3125 7.10312C6.69206 7.10312 6.1875 7.63408 6.1875 8.28697C6.1875 8.93987 6.69206 9.47083 7.3125 9.47083H10.6875C11.9284 9.47083 12.9375 8.40891 12.9375 7.10312C12.9375 5.79733 11.9284 4.73541 10.6875 4.73541C9.58162 4.73541 8.65069 5.57358 8.47519 6.72843L8.36494 7.45176L7.71638 7.18658C7.58081 7.13094 7.44525 7.10312 7.3125 7.10312Z" fill="#EB7F00"/>
<path fill-rule="evenodd" clip-rule="evenodd" d="M0 28.4125H27V0H0V28.4125ZM25.875 27.2286H1.125V21.3094H25.875V27.2286ZM3.56402 20.1255H1.125V1.18385H25.875V20.1255H25.0975L21.2745 12.0794C20.8565 11.2004 20.0173 10.6547 19.0835 10.6547C18.2161 10.6547 17.405 11.1442 16.968 11.9332L14.0008 17.2866C13.1266 16.1762 11.2586 14.2062 9.00015 14.2062C6.23278 14.2062 4.15536 18.6956 3.56402 20.1255ZM4.80011 20.1255C5.61853 18.3117 7.29641 15.3901 9.00015 15.3901C11.474 15.3901 13.5738 18.6457 13.5952 18.6788C13.7032 18.8481 13.8888 18.9576 14.0801 18.9411C14.2736 18.9345 14.4508 18.8244 14.5486 18.6481L17.94 12.5299C18.1768 12.1037 18.615 11.8385 19.0841 11.8385C19.5886 11.8385 20.0426 12.1339 20.2681 12.6086L23.8397 20.1255H4.80011Z" fill="#EB7F00"/>
</svg>
