<svg width="62" height="65" viewBox="0 0 62 65" fill="none" xmlns="http://www.w3.org/2000/svg">
<path fill-rule="evenodd" clip-rule="evenodd" d="M5.45477 21.1569C6.03196 21.1569 6.49986 20.689 6.49986 20.1118C6.49986 19.5346 6.03196 19.0667 5.45477 19.0667C4.87757 19.0667 4.40967 19.5346 4.40967 20.1118C4.40967 20.689 4.87757 21.1569 5.45477 21.1569Z" fill="#225378"/>
<path fill-rule="evenodd" clip-rule="evenodd" d="M41.3706 14.4274C41.753 14.8353 42.7726 15.7784 43.104 16.1353C45.8314 18.7608 49.3746 22.9922 52.9177 23.5784C55.5432 23.9863 57.455 22.8647 57.8118 20.9529C58.0667 18.5823 56.0785 17.2823 53.9373 17.1294C51.3118 17.1039 50.2412 18.0725 48.5589 19.551C48.4059 19.449 46.6726 17.7412 46.1628 17.1294C48.4059 14.9118 50.955 13.8412 53.9628 13.8412C58.9844 14.0961 62.1197 17.8431 61.0236 22.3294C60.1059 25.1333 57.6589 26.6118 55.1863 26.7647C53.1471 26.9431 51.1334 26.7137 49.0942 25.8216C45.5765 23.8333 42.2373 19.7804 38.9236 16.7216L41.3706 14.4274Z" fill="#225378"/>
<path fill-rule="evenodd" clip-rule="evenodd" d="M18.251 16.4412L27.6823 7.36667L30.0784 9.81373L20.7235 18.7353L18.251 16.4412Z" fill="#225378"/>
<path fill-rule="evenodd" clip-rule="evenodd" d="M32.3469 30.4608L41.6254 21.4627L43.9959 23.8843L34.7175 32.9333L32.3469 30.4608Z" fill="#225378"/>
<path fill-rule="evenodd" clip-rule="evenodd" d="M34.5902 12.4647L27.6823 5.30196C26.0255 3.61961 24.2921 3.26275 22.9921 3.69608C22.5333 3.84902 22.1255 4.10392 21.7941 4.4098C21.4627 4.71569 21.2333 5.09804 21.0804 5.50588C20.7235 6.52549 21.1314 7.67255 22.4059 8.94706L22.3804 8.92157L23.2725 9.76275L20.8 12.1333L20.0608 11.4451L20.0353 11.4196C17.6902 9.1 17.1294 6.60196 17.8941 4.4353C18.2255 3.51765 18.7608 2.70196 19.449 2.03922C20.1372 1.37647 20.9784 0.866668 21.947 0.560785C24.3686 -0.229411 27.4274 0.254903 30.1294 3.03333L37.0372 10.1961L34.5902 12.4647ZM27.6059 14.0706L37.2921 23.7569L34.8196 26.1275L25.1333 16.4412L27.6059 14.0706ZM41.6765 28.0137L42.7725 29.1098C44.7098 31.0726 45.2196 33.1373 44.5059 35.8647C44.1235 36.7569 43.5372 37.598 42.798 38.2608C42.0588 38.9235 41.1921 39.4588 40.2235 39.7647C37.8784 40.5294 35.049 40.0706 32.5255 37.4961L24.9804 29.849L27.4274 27.5039L34.9216 35.1C38.3882 39 43.6137 35.202 40.3255 31.6078L39.1274 30.4098L41.6765 28.0137Z" fill="#225378"/>
<path fill-rule="evenodd" clip-rule="evenodd" d="M32.0667 3.00784C34.8196 0.178426 38.1843 -0.305888 40.6059 0.484309C41.6 0.815681 42.4667 1.35098 43.1549 2.03921C43.8431 2.75294 44.3784 3.59411 44.6588 4.56274C45.2961 6.70392 44.7863 9.27843 42.5176 11.4961L42.4921 11.5216L34.4627 18.9902L32.0667 16.5686L40.1725 9.02352L40.147 9.04901C41.3706 7.85098 41.9823 6.04117 40.6823 4.43529C38.7706 2.52352 36.451 3.3647 34.4882 5.40392L32.0667 3.00784ZM30.0019 23.298L21.8706 30.8686C20.8 32.1686 20.5961 33.4941 21.0294 34.5902C21.2333 35.0745 21.5137 35.5078 21.9216 35.8647C22.3039 36.2216 22.7627 36.4765 23.2725 36.6294C24.4961 36.9863 26.0765 36.6294 27.6823 35.1255L27.9627 34.8451L30.3588 37.2922C30.2823 37.3686 30.1039 37.5471 30.0274 37.598C27.4274 40.0451 24.649 40.5549 22.3549 39.8922C21.3098 39.5863 20.3667 39.0765 19.6019 38.3627C18.8372 37.6745 18.2255 36.7823 17.8431 35.8137C16.9765 33.5961 17.2823 30.9706 19.2706 28.6L19.4235 28.4471L27.5804 20.851L30.0019 23.298Z" fill="#225378"/>
<path fill-rule="evenodd" clip-rule="evenodd" d="M20.8509 25.4392L16.798 21.3608C14.147 18.6843 11.0117 16.5431 7.06073 16.9255C4.94504 16.951 2.447 18.5823 2.57445 21.0294C3.41563 26.3314 11.8274 24.9039 14.7588 21.6157C15.2941 21.8961 16.1097 22.1255 16.747 22.5843C17.9196 23.4255 19.4999 25.2353 19.0666 27.2745C18.7607 29.5176 16.5941 30.7412 15.5999 30.7922C13.1529 31.251 11.598 29.6961 11.8019 28.2431C11.9548 29.1098 13.1019 30.002 14.2999 29.6451C16.4411 29.2627 16.9764 25.3882 14.6313 24.8274C12.8215 26.2804 9.71171 27.5039 6.42347 27.0196C3.33916 26.5608 0.66269 24.802 0.178376 21.4882C-0.407898 17.9961 2.70191 14.4274 6.72936 14.1216C11.9294 13.6372 15.8548 15.8294 18.6588 18.7098L23.145 23.298L20.8509 25.4392Z" fill="#225378"/>
<path fill-rule="evenodd" clip-rule="evenodd" d="M8.33521 13.3059C11.1136 13.051 14.2999 13.7137 15.5999 15.2431C17.2568 13 12.898 10.6804 8.33521 13.3059Z" fill="#225378"/>
<path fill-rule="evenodd" clip-rule="evenodd" d="M7.54493 18.9392C8.08022 20.5961 7.3665 22.9667 6.16846 23.5784C7.82532 23.5529 9.12532 21.1314 7.54493 18.9392Z" fill="#225378"/>
<path fill-rule="evenodd" clip-rule="evenodd" d="M12.8981 51.7451H12.2863V54.7529H10.8589V47.5137H12.2863V50.4706H12.7452L14.1471 47.5137H15.8805L13.8922 50.8275L16.0334 54.7784H14.3001L12.8981 51.7451ZM19.7805 53.198L20.1628 54.7529H21.5903L19.551 47.5137H18.0981L16.0589 54.7529H17.4863L17.8687 53.198H19.7805ZM18.1491 52.0765L18.8118 49.5275H18.8373L19.5001 52.0765H18.1491ZM26.6628 52.4078L26.6883 52.4333C26.6883 53.2235 26.5099 53.8353 26.1275 54.2431C25.7452 54.651 25.1844 54.8549 24.4197 54.8549C23.6805 54.8549 23.0687 54.6255 22.6099 54.1667C22.151 53.7078 21.9471 53.0451 21.9471 52.2039V50.0373C21.9471 49.1961 22.151 48.5588 22.5844 48.0745C23.0177 47.6157 23.604 47.3863 24.3177 47.3863C25.0824 47.3863 25.6687 47.5902 26.051 47.998C26.4334 48.4059 26.6373 49.0176 26.6628 49.8333L26.6373 49.8588H25.2608C25.2863 49.3745 25.2099 49.0431 25.0569 48.8392C24.904 48.6353 24.6491 48.5333 24.2667 48.5333C23.9608 48.5333 23.7059 48.6608 23.5275 48.9157C23.3491 49.1706 23.2726 49.5529 23.2726 50.0373V52.2039C23.2726 52.7137 23.3746 53.0961 23.553 53.351C23.7314 53.6059 23.9863 53.7333 24.3432 53.7333C24.6746 53.7333 24.9295 53.6314 25.0569 53.4275C25.1844 53.2235 25.2608 52.8922 25.2354 52.4078H26.6628ZM31.1236 47.5137H32.5256V54.7529H31.1236V50.2412H31.0981L28.8805 54.7529H27.4785V47.5137H28.8805V52H28.9059L31.1236 47.5137ZM35.4314 47.5137L36.7314 52.8412H36.7569L38.0824 47.5137H39.9177V54.7529H38.5157V52.6373L38.6432 49.8078H38.6177L37.2412 54.7275H36.2981L34.9216 49.8333H34.8961L35.0236 52.6118V54.7275H33.6216V47.4882H35.4314V47.5137ZM45.8824 52.1529C45.8824 52.9941 45.653 53.6569 45.1942 54.1412C44.7354 54.6255 44.1236 54.8549 43.3589 54.8549C42.5942 54.8549 41.9824 54.6255 41.5236 54.1412C41.0648 53.6569 40.8354 52.9941 40.8354 52.1529V50.1137C40.8354 49.2726 41.0648 48.6098 41.5236 48.1255C41.9824 47.6412 42.5942 47.4118 43.3589 47.4118C44.1236 47.4118 44.7354 47.6412 45.1942 48.1255C45.653 48.6098 45.8824 49.2726 45.8824 50.1137V52.1529ZM44.4805 50.1137C44.4805 49.6039 44.3785 49.1961 44.2001 48.9412C43.9961 48.6863 43.7157 48.5333 43.3589 48.5333C42.9765 48.5333 42.6961 48.6608 42.5177 48.9157C42.3393 49.1706 42.2373 49.5784 42.2373 50.0882V52.1275C42.2373 52.6627 42.3393 53.0451 42.5177 53.3C42.6961 53.5549 42.9765 53.6824 43.3589 53.6824C43.7157 53.6824 43.9961 53.5549 44.2001 53.3C44.404 53.0451 44.4805 52.6373 44.4805 52.1275V50.1137ZM46.8001 54.7529V47.5137H48.9412C49.6805 47.5137 50.2667 47.6922 50.7001 48.0235C51.1079 48.3549 51.3373 48.8392 51.3373 49.502C51.3373 49.8588 51.2608 50.1647 51.1079 50.4196C50.955 50.6745 50.7256 50.8784 50.4197 51.0314C50.802 51.1333 51.0824 51.3118 51.2608 51.6176C51.4393 51.9235 51.5412 52.2549 51.5412 52.6627C51.5412 53.351 51.3373 53.8863 50.955 54.2431C50.5471 54.6 49.9863 54.7784 49.2471 54.7784H46.8001V54.7529ZM48.2275 51.5412V53.6059H49.2216C49.5275 53.6059 49.7314 53.5294 49.8844 53.351C50.0373 53.1726 50.1138 52.9431 50.1138 52.6118C50.1138 52.2549 50.0373 52 49.9354 51.8216C49.8079 51.6431 49.604 51.5412 49.3236 51.5412H48.2275ZM48.2275 50.5726H49.0177C49.2981 50.5726 49.5275 50.4706 49.6805 50.3176C49.8334 50.1647 49.9099 49.9353 49.9099 49.6294C49.9099 49.298 49.8334 49.0431 49.6805 48.8902C49.5275 48.7373 49.2726 48.6608 48.9667 48.6608H48.253V50.5726H48.2275Z" fill="#225378"/>
<path fill-rule="evenodd" clip-rule="evenodd" d="M8.79406 62.4255L8.81955 62.451C8.81955 63.2412 8.64111 63.8529 8.25876 64.2608C7.87641 64.6686 7.31562 64.8725 6.55092 64.8725C5.78621 64.8725 5.19994 64.6431 4.74111 64.1843C4.28229 63.7255 4.07837 63.0627 4.07837 62.2216V60.0549C4.07837 59.2137 4.28229 58.5765 4.71562 58.0922C5.14896 57.6333 5.73523 57.4039 6.44896 57.4039C7.21366 57.4039 7.79994 57.6078 8.18229 58.0157C8.56464 58.4235 8.76857 59.0353 8.79406 59.851L8.76857 59.8765H7.39209C7.41758 59.3922 7.34111 59.0608 7.18817 58.8569C7.03523 58.6529 6.78033 58.551 6.39798 58.551C6.09209 58.551 5.83719 58.6784 5.65876 58.9333C5.48033 59.1882 5.40386 59.5706 5.40386 60.0549V62.2216C5.40386 62.7314 5.50582 63.1137 5.68425 63.3686C5.86268 63.6235 6.11758 63.751 6.47445 63.751C6.80582 63.751 7.06072 63.649 7.18817 63.4451C7.31562 63.2412 7.39209 62.9098 7.3666 62.4255H8.79406ZM13.5097 61.5843H11.0627V63.6235H13.9176V64.7451H9.63523V57.5059H13.9176V58.6274H11.0627V60.4372H13.5097V61.5843ZM19.0411 58.6529H17.4097V64.7706H16.0078V58.6529H14.3764V57.5314H19.0411V58.6529ZM23.5784 61.5843H21.1568V63.6235H24.0117V64.7451H19.7293V57.5059H24.0117V58.6274H21.1568V60.4372H23.6039V61.5843H23.5784ZM29.2882 62.4255L29.3137 62.451C29.3137 63.2412 29.1352 63.8529 28.7529 64.2608C28.3705 64.6686 27.8097 64.8725 27.045 64.8725C26.2803 64.8725 25.6941 64.6431 25.2352 64.1843C24.7764 63.7255 24.5725 63.0627 24.5725 62.2216V60.0549C24.5725 59.2137 24.7764 58.5765 25.2097 58.0922C25.6431 57.6333 26.2293 57.4039 26.9431 57.4039C27.7078 57.4039 28.2941 57.6078 28.6764 58.0157C29.0588 58.4235 29.2627 59.0353 29.2882 59.851L29.2627 59.8765H27.8862C27.9117 59.3922 27.8352 59.0608 27.6823 58.8569C27.5294 58.6529 27.2744 58.551 26.8921 58.551C26.5862 58.551 26.3313 58.6784 26.1529 58.9333C25.9744 59.1882 25.898 59.5706 25.898 60.0549V62.2216C25.898 62.7314 25.9999 63.1137 26.1784 63.3686C26.3568 63.6235 26.6117 63.751 26.9686 63.751C27.2999 63.751 27.5548 63.649 27.6823 63.4451C27.8097 63.2412 27.8862 62.9098 27.8607 62.4255H29.2882ZM35.2529 64.7706H33.8254V61.7627H31.5823V64.7706H30.1548V57.5314H31.5823V60.6412H33.8254V57.5314H35.2529V64.7706ZM39.6882 63.2157H37.7764L37.3941 64.7706H35.9666L38.0058 57.5314H39.4843L41.5235 64.7706H40.096L39.6882 63.2157ZM38.0568 62.0686H39.3823L38.7195 59.5196H38.6941L38.0568 62.0686ZM46.5705 62.4255L46.596 62.451C46.596 63.2412 46.4176 63.8529 46.0352 64.2608C45.6529 64.6686 45.0921 64.8725 44.3274 64.8725C43.5627 64.8725 42.9764 64.6431 42.5176 64.1843C42.0588 63.7255 41.8548 63.0627 41.8548 62.2216V60.0549C41.8548 59.2137 42.0588 58.5765 42.4921 58.0922C42.9254 57.6333 43.5117 57.4039 44.2254 57.4039C44.9901 57.4039 45.5764 57.6078 45.9588 58.0157C46.3411 58.4235 46.545 59.0353 46.5705 59.851L46.545 59.8765H45.1686C45.1941 59.3922 45.1176 59.0608 44.9646 58.8569C44.8117 58.6529 44.5568 58.551 44.1744 58.551C43.8686 58.551 43.6137 58.6784 43.4352 58.9333C43.2568 59.1882 43.1803 59.5706 43.1803 60.0549V62.2216C43.1803 62.7314 43.2823 63.1137 43.4607 63.3686C43.6392 63.6235 43.8941 63.751 44.2509 63.751C44.5823 63.751 44.8372 63.649 44.9646 63.4451C45.0921 63.2412 45.1686 62.9098 45.1431 62.4255H46.5705ZM51.5666 58.6529H49.9352V64.7706H48.5333V58.6529H46.9019V57.5314H51.5666V58.6529ZM53.7333 60.1823H54.6509C55.3901 60.1823 55.9509 60.3863 56.3843 60.7941C56.8176 61.202 57.0215 61.7627 57.0215 62.4255C57.0215 63.1137 56.7921 63.6745 56.3588 64.1078C55.9254 64.5412 55.3392 64.7451 54.6254 64.7451H52.3058V57.5059H53.7078V60.1823H53.7333ZM53.7333 61.3039V63.6235H54.6509C54.9568 63.6235 55.1862 63.5216 55.3646 63.2922C55.5431 63.0627 55.6195 62.7823 55.6195 62.451C55.6195 62.1196 55.5431 61.8647 55.3646 61.6353C55.1862 61.4314 54.9568 61.3294 54.6509 61.3294H53.7333V61.3039Z" fill="#225378"/>
</svg>
