<svg width="68" height="70" viewBox="0 0 68 70" fill="none" xmlns="http://www.w3.org/2000/svg">
<path fill-rule="evenodd" clip-rule="evenodd" d="M6.03032 22.5024C6.66839 22.5024 7.18565 22.0048 7.18565 21.3909C7.18565 20.777 6.66839 20.2793 6.03032 20.2793C5.39226 20.2793 4.875 20.777 4.875 21.3909C4.875 22.0048 5.39226 22.5024 6.03032 22.5024Z" fill="#383838"/>
<path fill-rule="evenodd" clip-rule="evenodd" d="M45.734 15.3452C46.1566 15.779 47.2838 16.7821 47.6501 17.1617C50.6652 19.9542 54.582 24.4546 58.4989 25.0782C61.4013 25.512 63.5147 24.3191 63.9092 22.2857C64.1909 19.7644 61.993 18.3817 59.626 18.219C56.7236 18.1919 55.5401 19.2222 53.6803 20.7946C53.5113 20.6862 51.5951 18.8697 51.0315 18.219C53.5113 15.8604 56.3291 14.7217 59.6542 14.7217C65.2054 14.9928 68.6713 18.9782 67.4597 23.7497C66.4452 26.732 63.7401 28.3044 61.0068 28.4671C58.7525 28.6569 56.5264 28.4129 54.2721 27.464C50.3834 25.3493 46.692 21.0386 43.0288 17.7853L45.734 15.3452Z" fill="#383838"/>
<path fill-rule="evenodd" clip-rule="evenodd" d="M20.176 17.5139L30.6021 7.8623L33.2509 10.465L22.9094 19.9539L20.176 17.5139Z" fill="#383838"/>
<path fill-rule="evenodd" clip-rule="evenodd" d="M35.7588 32.4253L46.0158 22.855L48.6364 25.4306L38.3794 35.0279L35.7588 32.4253Z" fill="#383838"/>
<path fill-rule="evenodd" clip-rule="evenodd" d="M38.2384 13.2846L30.602 5.6663C28.7704 3.87696 26.8543 3.4974 25.4172 3.95829C24.9099 4.12096 24.4591 4.39207 24.0928 4.71741C23.7264 5.04274 23.4728 5.44941 23.3038 5.88319C22.9093 6.96764 23.3601 8.18765 24.7691 9.54321L24.7409 9.5161L25.7271 10.4108L22.9938 12.9321L22.1766 12.2001L22.1484 12.173C19.556 9.70588 18.9361 7.04898 19.7814 4.74452C20.1478 3.76851 20.7395 2.90095 21.5003 2.19606C22.2612 1.49116 23.191 0.948939 24.2618 0.623603C26.9388 -0.216846 30.3202 0.298268 33.3072 3.2534L40.9436 10.8717L38.2384 13.2846ZM30.5175 14.9926L41.2254 25.2949L38.492 27.8162L27.7842 17.5139L30.5175 14.9926ZM46.0721 29.8225L47.2838 30.9882C49.4253 33.0758 49.9889 35.2718 49.1999 38.1727C48.7772 39.1216 48.1291 40.0163 47.3119 40.7212C46.4948 41.4261 45.5367 41.9954 44.4659 42.3208C41.8735 43.1341 38.7456 42.6461 35.956 39.9078L27.6151 31.7745L30.3202 29.2802L38.6047 37.3594C42.437 41.5074 48.2137 37.4678 44.5786 33.6451L43.2542 32.3709L46.0721 29.8225Z" fill="#383838"/>
<path fill-rule="evenodd" clip-rule="evenodd" d="M35.4488 3.22637C38.4921 0.217021 42.2116 -0.298093 44.8886 0.542357C45.9876 0.894804 46.9456 1.46414 47.7065 2.19615C48.4673 2.95526 49.059 3.84993 49.369 4.88016C50.0735 7.15751 49.5099 9.89575 47.002 12.2544L46.9738 12.2815L38.0976 20.2251L35.4488 17.6496L44.4096 9.62464L44.3814 9.65175C45.734 8.37752 46.4102 6.45262 44.9731 4.74461C42.8597 2.71126 40.2955 3.60593 38.1257 5.77483L35.4488 3.22637ZM33.1663 24.7798L24.1773 32.8319C22.9938 34.2146 22.7684 35.6244 23.2474 36.7901C23.4729 37.3053 23.7828 37.7661 24.2337 38.1457C24.6564 38.5253 25.1636 38.7964 25.7271 38.959C27.0797 39.3386 28.8268 38.959 30.602 37.3595L30.912 37.0613L33.5608 39.6639C33.4763 39.7453 33.279 39.935 33.1945 39.9893C30.3203 42.592 27.2488 43.1342 24.7127 42.4293C23.5574 42.1039 22.5148 41.5617 21.6694 40.8026C20.8241 40.0706 20.1478 39.1217 19.7251 38.0915C18.767 35.7328 19.1052 32.9403 21.3031 30.419L21.4722 30.2563L30.4893 22.1772L33.1663 24.7798Z" fill="#383838"/>
<path fill-rule="evenodd" clip-rule="evenodd" d="M23.0502 27.0572L18.5698 22.7194C15.6392 19.8727 12.1733 17.5954 7.80558 18.002C5.46676 18.0292 2.70526 19.7643 2.84615 22.367C3.77604 28.0061 13.075 26.4879 16.3155 22.9905C16.9073 23.2887 17.809 23.5327 18.5135 24.0207C19.8097 24.9154 21.5567 26.8403 21.0777 29.0092C20.7396 31.395 18.3444 32.6964 17.2454 32.7506C14.5403 33.2386 12.8214 31.5848 13.0468 30.0394C13.2159 30.9612 14.4839 31.9101 15.8083 31.5306C18.1753 31.1239 18.7671 27.003 16.1746 26.4065C14.174 27.9519 10.7362 29.2532 7.10112 28.7381C3.69151 28.2501 0.732754 26.3794 0.19736 22.855C-0.450748 19.1407 2.98704 15.3451 7.43926 15.0198C13.1877 14.5047 17.5272 16.8363 20.6269 19.8998L25.5863 24.7799L23.0502 27.0572Z" fill="#383838"/>
<path fill-rule="evenodd" clip-rule="evenodd" d="M9.2146 14.152C12.2861 13.8809 15.8084 14.5858 17.2455 16.2124C19.0771 13.8266 14.2586 11.3866 9.2146 14.152Z" fill="#383838"/>
<path fill-rule="evenodd" clip-rule="evenodd" d="M8.34098 20.144C8.93273 21.9063 8.14373 24.4276 6.81934 25.0783C8.65095 25.0783 10.0881 22.4756 8.34098 20.144Z" fill="#383838"/>
<path fill-rule="evenodd" clip-rule="evenodd" d="M14.7893 55.4376H14.1137V58.383H12.5374V51.2942H14.1137V54.1896H14.6204L16.1685 51.2942H18.0827L15.8871 54.539L18.2515 58.4079H16.3374L14.7893 55.4376ZM22.3894 56.8853L22.8116 58.4079H24.388L22.1361 51.3191H20.5316L18.2797 58.4079H19.856L20.2783 56.8853H22.3894ZM20.5879 55.7621L21.3198 53.2661H21.3479L22.0798 55.7621H20.5879ZM29.9896 56.1116L30.0177 56.1365C30.0177 56.9103 29.8207 57.5093 29.3984 57.9087C28.9762 58.3081 28.3569 58.5078 27.5125 58.5078C26.6962 58.5078 26.0206 58.2831 25.5139 57.8338C25.0072 57.3845 24.7821 56.7356 24.7821 55.9119V53.7902C24.7821 52.9665 25.0072 52.3425 25.4858 51.8683C25.9643 51.419 26.6117 51.1943 27.3999 51.1943C28.2443 51.1943 28.8918 51.394 29.314 51.7934C29.7362 52.1928 29.9614 52.7918 29.9896 53.5905L29.9614 53.6155H28.4414C28.4695 53.1413 28.3851 52.8168 28.2162 52.6171C28.0473 52.4174 27.7658 52.3176 27.3436 52.3176C27.0058 52.3176 26.7243 52.4424 26.5273 52.692C26.3302 52.9416 26.2458 53.316 26.2458 53.7902V55.9119C26.2458 56.4111 26.3584 56.7855 26.5554 57.0351C26.7525 57.2847 27.0339 57.4095 27.428 57.4095C27.794 57.4095 28.0755 57.3097 28.2162 57.11C28.3569 56.9103 28.4414 56.5858 28.4132 56.1116H29.9896ZM34.9156 51.2942H36.4638V58.383H34.9156V53.965H34.8874L32.4385 58.383H30.8903V51.2942H32.4385V55.7122H32.4667L34.9156 51.2942ZM39.6727 51.2942L41.1083 56.5109H41.1365L42.6002 51.2942H44.6269V58.383H43.0787V56.3112L43.2195 53.5406H43.1913L41.6713 58.358H40.6298L39.1098 53.5656H39.0816L39.2223 56.2863V58.358H37.6742V51.2692H39.6727V51.2942ZM51.2137 55.837C51.2137 56.6607 50.9604 57.3097 50.4537 57.7839C49.947 58.2582 49.2714 58.4828 48.427 58.4828C47.5825 58.4828 46.907 58.2582 46.4003 57.7839C45.8936 57.3097 45.6403 56.6607 45.6403 55.837V53.8402C45.6403 53.0165 45.8936 52.3675 46.4003 51.8932C46.907 51.419 47.5825 51.1943 48.427 51.1943C49.2714 51.1943 49.947 51.419 50.4537 51.8932C50.9604 52.3675 51.2137 53.0165 51.2137 53.8402V55.837ZM49.6655 53.8402C49.6655 53.3409 49.5529 52.9416 49.3559 52.692C49.1307 52.4424 48.8211 52.2926 48.427 52.2926C48.0048 52.2926 47.6951 52.4174 47.4981 52.667C47.301 52.9166 47.1884 53.316 47.1884 53.8152V55.812C47.1884 56.3362 47.301 56.7106 47.4981 56.9602C47.6951 57.2098 48.0048 57.3346 48.427 57.3346C48.8211 57.3346 49.1307 57.2098 49.3559 56.9602C49.5811 56.7106 49.6655 56.3112 49.6655 55.812V53.8402ZM52.2271 58.4079V51.3191H54.5916C55.4079 51.3191 56.0553 51.4939 56.5338 51.8183C56.9842 52.1428 57.2375 52.6171 57.2375 53.2661C57.2375 53.6155 57.1531 53.915 56.9842 54.1646C56.8153 54.4142 56.562 54.6139 56.2242 54.7637C56.6464 54.8635 56.956 55.0383 57.1531 55.3378C57.3501 55.6373 57.4627 55.9618 57.4627 56.3612C57.4627 57.0351 57.2375 57.5593 56.8153 57.9087C56.3649 58.2582 55.7457 58.4329 54.9293 58.4329H52.2271V58.4079ZM53.8034 55.2629V57.2847H54.9012C55.239 57.2847 55.4642 57.2098 55.6331 57.0351C55.8019 56.8604 55.8864 56.6357 55.8864 56.3112C55.8864 55.9618 55.8019 55.7122 55.6894 55.5375C55.5486 55.3627 55.3234 55.2629 55.0138 55.2629H53.8034ZM53.8034 54.2894H54.676C54.9856 54.2894 55.239 54.1896 55.4079 54.0398C55.5768 53.8901 55.6612 53.6654 55.6612 53.3659C55.6612 53.0414 55.5768 52.7918 55.4079 52.642C55.239 52.4923 54.9575 52.4174 54.6197 52.4174H53.8315V54.2894H53.8034Z" fill="#383838"/>
<path fill-rule="evenodd" clip-rule="evenodd" d="M9.3905 67.6037L9.41867 67.6287C9.41867 68.4025 9.22149 69.0015 8.79895 69.4009C8.37641 69.8003 7.75669 70 6.91161 70C6.06654 70 5.41864 69.7753 4.9116 69.326C4.40455 68.8767 4.1792 68.2278 4.1792 67.4041V65.2824C4.1792 64.4587 4.40455 63.8347 4.88343 63.3605C5.36231 62.9112 6.0102 62.6865 6.79894 62.6865C7.64401 62.6865 8.2919 62.8862 8.71444 63.2856C9.13698 63.6849 9.36234 64.284 9.3905 65.0827L9.36234 65.1077H7.8412C7.86937 64.6334 7.78486 64.309 7.61584 64.1093C7.44683 63.9096 7.16514 63.8097 6.7426 63.8097C6.40457 63.8097 6.12288 63.9345 5.92569 64.1842C5.72851 64.4338 5.644 64.8082 5.644 65.2824V67.4041C5.644 67.9033 5.75668 68.2777 5.95386 68.5273C6.15104 68.7769 6.43274 68.9017 6.82711 68.9017C7.19331 68.9017 7.475 68.8019 7.61584 68.6022C7.75669 68.4025 7.8412 68.078 7.81303 67.6037H9.3905ZM14.6018 66.78H11.8976V68.7769H15.0525V69.8752H10.3201V62.7864H15.0525V63.8846H11.8976V65.6568H14.6018V66.78ZM20.7145 63.9096H18.9117V69.9001H17.3624V63.9096H15.5596V62.8113H20.7145V63.9096ZM25.7286 66.78H23.0526V68.7769H26.2075V69.8752H21.4751V62.7864H26.2075V63.8846H23.0526V65.6568H25.7568V66.78H25.7286ZM32.0386 67.6037L32.0667 67.6287C32.0667 68.4025 31.8695 69.0015 31.447 69.4009C31.0245 69.8003 30.4047 70 29.5597 70C28.7146 70 28.0667 69.7753 27.5596 69.326C27.0526 68.8767 26.8272 68.2278 26.8272 67.4041V65.2824C26.8272 64.4587 27.0526 63.8347 27.5315 63.3605C28.0104 62.9112 28.6582 62.6865 29.447 62.6865C30.2921 62.6865 30.94 62.8862 31.3625 63.2856C31.785 63.6849 32.0104 64.284 32.0386 65.0827L32.0104 65.1077H30.4892C30.5174 64.6334 30.4329 64.309 30.2639 64.1093C30.0949 63.9096 29.8132 63.8097 29.3906 63.8097C29.0526 63.8097 28.7709 63.9345 28.5737 64.1842C28.3766 64.4338 28.292 64.8082 28.292 65.2824V67.4041C28.292 67.9033 28.4047 68.2777 28.6019 68.5273C28.7991 68.7769 29.0808 68.9017 29.4752 68.9017C29.8414 68.9017 30.123 68.8019 30.2639 68.6022C30.4047 68.4025 30.4892 68.078 30.4611 67.6037H32.0386ZM38.6301 69.9001H37.0527V66.9548H34.5738V69.9001H32.9963V62.8113H34.5738V65.8565H37.0527V62.8113H38.6301V69.9001ZM43.5316 68.3775H41.4189L40.9964 69.9001H39.4189L41.6724 62.8113H43.3062L45.5598 69.9001H43.9823L43.5316 68.3775ZM41.7288 67.2793H43.1936L42.4612 64.7832H42.433L41.7288 67.2793ZM51.1373 67.6037L51.1655 67.6287C51.1655 68.4025 50.9683 69.0015 50.5457 69.4009C50.1232 69.8003 49.5035 70 48.6584 70C47.8133 70 47.1654 69.7753 46.6584 69.326C46.1513 68.8767 45.926 68.2278 45.926 67.4041V65.2824C45.926 64.4587 46.1513 63.8347 46.6302 63.3605C47.1091 62.9112 47.757 62.6865 48.5457 62.6865C49.3908 62.6865 50.0387 62.8862 50.4612 63.2856C50.8838 63.6849 51.1091 64.284 51.1373 65.0827L51.1091 65.1077H49.588C49.6161 64.6334 49.5316 64.309 49.3626 64.1093C49.1936 63.9096 48.9119 63.8097 48.4894 63.8097C48.1513 63.8097 47.8697 63.9345 47.6725 64.1842C47.4753 64.4338 47.3908 64.8082 47.3908 65.2824V67.4041C47.3908 67.9033 47.5035 68.2777 47.7006 68.5273C47.8978 68.7769 48.1795 68.9017 48.5739 68.9017C48.9401 68.9017 49.2218 68.8019 49.3626 68.6022C49.5035 68.4025 49.588 68.078 49.5598 67.6037H51.1373ZM56.6585 63.9096H54.8556V69.9001H53.3063V63.9096H51.5035V62.8113H56.6585V63.9096ZM59.0528 65.4072H60.0669C60.8838 65.4072 61.5036 65.6069 61.9824 66.0063C62.4613 66.4056 62.6867 66.9548 62.6867 67.6037C62.6867 68.2777 62.4331 68.8268 61.9543 69.2511C61.4754 69.6755 60.8275 69.8752 60.0388 69.8752H57.4754V62.7864H59.0247V65.4072H59.0528ZM59.0528 66.5304V68.8019H60.0669C60.405 68.8019 60.6585 68.702 60.8557 68.4774C61.0528 68.2527 61.1374 67.9782 61.1374 67.6537C61.1374 67.3292 61.0528 67.0796 60.8557 66.8549C60.6585 66.6552 60.405 66.5554 60.0669 66.5554H59.0528V66.5304Z" fill="#383838"/>
</svg>
