<svg width="53" height="40" viewBox="0 0 53 40" fill="none" xmlns="http://www.w3.org/2000/svg">
<path id="net" fill-rule="evenodd" clip-rule="evenodd" d="M52.1965 4.00026C52.6401 4.00026 53 3.64231 53 3.20042C53 3.19989 53 3.19989 53 3.19989C53 2.75853 52.6401 2.40005 52.1965 2.40005C50.8588 2.40005 50.2445 1.94127 49.467 1.35999C48.6142 0.722233 47.647 0 45.7734 0C43.8994 0 42.9326 0.722233 42.0793 1.35999C41.3013 1.94127 40.687 2.40005 39.3493 2.40005C38.0111 2.40005 37.3963 1.94127 36.6193 1.35999C35.766 0.722233 34.7982 0 32.9247 0C31.0506 0 30.0833 0.722233 29.23 1.35999C28.4525 1.94127 27.8382 2.40005 26.5 2.40005C25.1618 2.40005 24.5475 1.94127 23.7705 1.35999C22.9172 0.722233 21.9499 0 20.0769 0C18.2034 0 17.2361 0.722233 16.3828 1.35999C15.6053 1.94127 14.991 2.40005 13.6528 2.40005C12.3145 2.40005 11.6997 1.94127 10.9228 1.35999C10.0695 0.722233 9.10222 0 7.22867 0C5.35459 0 4.38787 0.722233 3.53457 1.35999C2.75653 1.94127 2.14279 2.40005 0.80401 2.40005C0.35934 2.40058 0 2.75906 0 3.20042C0 3.20042 0 3.20042 0 3.20095C0 3.64284 0.35934 4.00079 0.80295 4.00079C2.14067 4.00079 2.75547 4.45958 3.53298 5.04085C3.78314 5.22774 4.04655 5.42044 4.33593 5.60153C4.04708 5.78262 3.78367 5.97479 3.53351 6.16168C2.75547 6.74296 2.14173 7.20174 0.80295 7.20174C0.35934 7.20069 0 7.55916 0 8.00053C0 8.00053 0 8.00053 0 8.00106C0 8.44295 0.35934 8.8009 0.80295 8.8009C2.14067 8.8009 2.75547 9.25968 3.53298 9.84096C3.78314 10.0278 4.04655 10.2206 4.33593 10.4016C4.04708 10.5827 3.78367 10.7749 3.53351 10.9618C2.75547 11.5431 2.14173 12.0013 0.80295 12.0013C0.35934 12.0003 0 12.3587 0 12.8001C0 12.8001 0 12.8001 0 12.8006C0 13.242 0.35934 13.6005 0.80295 13.6005C2.14067 13.6005 2.75547 14.0593 3.53298 14.6411C3.78314 14.828 4.04655 15.0196 4.33593 15.2012C4.04708 15.3823 3.78367 15.5739 3.53351 15.7614C2.75547 16.3421 2.14173 16.8014 0.80295 16.8014C0.35934 16.8004 0 17.1583 0 17.6007C0 18.0421 0.35934 18.4006 0.80295 18.4006C2.14067 18.4006 2.75547 18.8594 3.53298 19.4406C3.78314 19.6275 4.04655 19.8202 4.33593 20.0013C4.04708 20.1824 3.78367 20.3741 3.53351 20.5609C2.75547 21.1427 2.14173 21.601 0.80295 21.601C0.35934 21.5999 0 21.959 0 22.4003C0 22.8422 0.35934 23.2007 0.80295 23.2007C2.14067 23.2007 2.75547 23.6595 3.53298 24.2407C3.78314 24.4276 4.04655 24.6198 4.33593 24.8014C4.04708 24.982 3.78367 25.1742 3.53351 25.3611C2.75547 25.9423 2.14173 26.4016 0.80295 26.4016C0.35934 26.4006 0 26.7585 0 27.2004C0 27.6423 0.35934 28.0008 0.80295 28.0008C2.14067 28.0008 2.75547 28.4596 3.53298 29.0403C3.78314 29.2272 4.04655 29.4204 4.33593 29.601C4.04708 29.7816 3.78367 29.9737 3.53351 30.1606C2.75547 30.7419 2.14173 31.2007 0.80295 31.2007C0.35934 31.2002 0 31.5586 0 32C0 32 0 32 0 32.0005C0 32.4424 0.35934 32.8009 0.80295 32.8009C2.14067 32.8009 2.75547 33.2597 3.53298 33.841C3.78314 34.0278 4.04655 34.22 4.33593 34.4011C4.04708 34.5822 3.78367 34.7744 3.53351 34.9613C2.75547 35.542 2.14173 36.0013 0.80295 36.0013C0.35934 36.0003 0 36.3577 0 36.8001C0 37.242 0.35934 37.5999 0.80295 37.5999C2.14067 37.5999 2.75547 38.0593 3.53298 38.64C4.38575 39.2772 5.353 40 7.22655 40C9.1001 40 10.0674 39.2772 10.9201 38.64C11.6976 38.0593 12.3119 37.5999 13.6502 37.5999C14.9884 37.5999 15.6032 38.0593 16.3802 38.64C17.2335 39.2772 18.2007 40 20.0743 40C21.9484 40 22.9151 39.2772 23.7684 38.64C24.5464 38.0593 25.1607 37.5999 26.4989 37.5999C27.8372 37.5999 28.4515 38.0593 29.2284 38.64C30.0817 39.2772 31.049 40 32.9225 40C34.7961 40 35.7628 39.2772 36.6166 38.64C37.3941 38.0593 38.0079 37.5999 39.3461 37.5999C40.6844 37.5999 41.2992 38.0593 42.0767 38.64C42.9295 39.2772 43.8973 40 45.7713 40C47.6449 40 48.6121 39.2772 49.4654 38.64C50.2435 38.0593 50.8577 37.5999 52.1955 37.5999C52.6391 37.5999 52.9989 37.242 52.9989 36.8001C52.9989 36.3577 52.6391 35.9997 52.1955 35.9997C50.8577 35.9997 50.2435 35.5404 49.466 34.9597C49.2158 34.7728 48.9524 34.5801 48.663 34.3995C48.9524 34.2184 49.2158 34.0263 49.4654 33.8394C50.2435 33.2581 50.8577 32.7993 52.1955 32.7993C52.6391 32.7993 52.9989 32.4408 52.9989 31.9989C52.9989 31.9984 52.9989 31.9984 52.9989 31.9984C52.9989 31.5571 52.6391 31.1986 52.1955 31.1986C50.8577 31.1986 50.2435 30.7398 49.466 30.1585C49.2158 29.9716 48.9524 29.7794 48.663 29.5984C48.9524 29.4167 49.2158 29.2251 49.4654 29.0377C50.2435 28.4569 50.8577 27.9982 52.1955 27.9982C52.6391 27.9982 52.9989 27.6397 52.9989 27.1978C52.9989 26.7559 52.6391 26.3979 52.1955 26.3979C50.8577 26.3979 50.2435 25.9386 49.466 25.3574C49.2158 25.1705 48.9524 24.9783 48.663 24.7972C48.9524 24.6161 49.2158 24.4239 49.4654 24.237C50.2435 23.6558 50.8577 23.197 52.1955 23.197C52.6391 23.197 52.9989 22.8385 52.9989 22.3966C52.9989 21.9553 52.6391 21.5963 52.1955 21.5963C50.8577 21.5963 50.2435 21.138 49.466 20.5562C49.2158 20.3693 48.9524 20.1777 48.663 19.996C48.9524 19.815 49.2158 19.6228 49.4654 19.4359C50.2435 18.8546 50.8577 18.3958 52.1955 18.3958C52.6391 18.3958 52.9989 18.0374 52.9989 17.596C52.9989 17.1536 52.6391 16.7956 52.1955 16.7956C50.8577 16.7956 50.2435 16.3363 49.466 15.7556C49.2158 15.5687 48.9524 15.376 48.663 15.1949C48.9524 15.0138 49.2158 14.8221 49.4654 14.6353C50.2435 14.0535 50.8577 13.5947 52.1955 13.5947C52.6391 13.5947 52.9989 13.2362 52.9989 12.7948C52.9989 12.7943 52.9989 12.7943 52.9989 12.7943C52.9989 12.3529 52.6391 11.9939 52.1955 11.9939C50.8577 11.9939 50.2435 11.5357 49.466 10.9544C49.2158 10.7675 48.9524 10.5753 48.663 10.3937C48.9524 10.2126 49.2158 10.0205 49.4654 9.83356C50.2435 9.25229 50.8577 8.79351 52.1955 8.79351C52.6391 8.79351 52.9989 8.43556 52.9989 7.99366C52.9989 7.99314 52.9989 7.99314 52.9989 7.99314C52.9989 7.55177 52.6391 7.1933 52.1955 7.1933C50.8577 7.1933 50.2435 6.73451 49.466 6.15324C49.2158 5.96634 48.9524 5.77364 48.663 5.59256C48.9524 5.41147 49.2158 5.2193 49.4654 5.0324C50.2445 4.45905 50.8588 4.00026 52.1965 4.00026ZM45.7735 1.60022C47.1112 1.60022 47.726 2.05901 48.503 2.64028C48.7532 2.82717 49.0166 3.01934 49.306 3.20043C49.016 3.38152 48.7526 3.57422 48.5025 3.76111C47.725 4.34238 47.1107 4.80117 45.7724 4.80117C44.4337 4.80117 43.8189 4.34238 43.0419 3.76111C42.7917 3.57422 42.5288 3.38205 42.24 3.20096C42.5294 3.01987 42.7933 2.8277 43.0435 2.64028C43.821 2.05953 44.4352 1.60022 45.7735 1.60022ZM39.3492 36.0003C38.011 36.0003 37.3962 35.541 36.6192 34.9602C36.3685 34.7733 36.1051 34.5806 35.8152 34.3995C36.1046 34.2179 36.3674 34.0263 36.6176 33.8394C37.3951 33.2587 38.0089 32.7999 39.3471 32.7999C40.6854 32.7999 41.3002 33.2587 42.0777 33.8399C42.3278 34.0268 42.5912 34.219 42.8811 34.4001C42.5923 34.5817 42.3289 34.7739 42.0793 34.9602C41.3017 35.541 40.6875 36.0003 39.3492 36.0003ZM26.5 36.0003C25.1618 36.0003 24.5475 35.541 23.7705 34.9602C23.5198 34.7733 23.2564 34.5806 22.967 34.3995C23.2564 34.219 23.5193 34.0263 23.7695 33.8399C24.5475 33.2587 25.1618 32.7999 26.5 32.7999C27.8383 32.7999 28.4525 33.2587 29.2295 33.8399C29.4802 34.0268 29.7436 34.219 30.033 34.4001C29.7436 34.5812 29.4802 34.7733 29.2301 34.9602C28.4531 35.541 27.8383 36.0003 26.5 36.0003ZM13.6522 36.0003C12.314 36.0003 11.6992 35.541 10.9222 34.9602C10.672 34.7733 10.4081 34.5806 10.1182 34.3995C10.4075 34.2185 10.6704 34.0263 10.9201 33.8399C11.6976 33.2587 12.3118 32.7999 13.6501 32.7999C14.9883 32.7999 15.6031 33.2587 16.3801 33.8399C16.6303 34.0268 16.8942 34.219 17.1841 34.4001C16.8947 34.5817 16.6319 34.7739 16.3822 34.9602C15.6047 35.541 14.991 36.0003 13.6522 36.0003ZM13.6507 4.00024C14.9889 4.00024 15.6037 4.45903 16.3807 5.0403C16.6309 5.2272 16.8948 5.4199 17.1847 5.60098C16.8954 5.78207 16.6325 5.97424 16.3828 6.16114C15.6053 6.74241 14.9911 7.20119 13.6528 7.20119C12.3146 7.20119 11.6998 6.74241 10.9228 6.16114C10.6726 5.97424 10.4087 5.78154 10.1188 5.60046C10.4082 5.41937 10.671 5.2272 10.9207 5.0403C11.6982 4.45903 12.3124 4.00024 13.6507 4.00024ZM26.5 4.00024C27.8383 4.00024 28.4525 4.45903 29.2295 5.0403C29.4802 5.2272 29.7436 5.4199 30.033 5.60098C29.7436 5.78207 29.4802 5.97424 29.2301 6.16114C28.4525 6.74241 27.8383 7.20119 26.5 7.20119C25.1618 7.20119 24.5475 6.74241 23.7705 6.16114C23.5198 5.97424 23.2564 5.78154 22.967 5.60046C23.2564 5.41937 23.5193 5.2272 23.7695 5.0403C24.547 4.45903 25.1618 4.00024 26.5 4.00024ZM32.9236 33.6002C31.5853 33.6002 30.971 33.1415 30.1935 32.5602C29.9439 32.3733 29.6805 32.1811 29.3911 32C29.6805 31.8189 29.9444 31.6268 30.1941 31.4399C30.9716 30.8586 31.5864 30.3993 32.9246 30.3993C34.2629 30.3993 34.8777 30.8586 35.6552 31.4399C35.9048 31.6262 36.1682 31.8184 36.4571 31.9995C36.1672 32.1806 35.9038 32.3733 35.6536 32.5602C34.8761 33.1415 34.2618 33.6002 32.9236 33.6002ZM20.0748 33.6002C18.7366 33.6002 18.1218 33.1415 17.3448 32.5602C17.0951 32.3733 16.8317 32.1816 16.5424 32.0006C16.8323 31.8189 17.0957 31.6273 17.3464 31.4399C18.1239 30.8586 18.7381 30.3993 20.0764 30.3993C21.4146 30.3993 22.0289 30.8586 22.8059 31.4399C23.0555 31.6268 23.3189 31.8189 23.6083 31.9995C23.3189 32.1811 23.0555 32.3733 22.8048 32.5602C22.0279 33.1415 21.4136 33.6002 20.0748 33.6002ZM20.0763 6.40033C21.4146 6.40033 22.0288 6.85964 22.8058 7.44039C23.0554 7.62728 23.3189 7.81945 23.6082 8.00054C23.3189 8.18215 23.0554 8.37433 22.8048 8.56122C22.0272 9.14249 21.413 9.60128 20.0742 9.60128C18.7359 9.60128 18.1211 9.14249 17.3442 8.56122C17.0945 8.37433 16.8311 8.18215 16.5417 8.0016C16.8317 7.81998 17.0951 7.62781 17.3458 7.44092C18.1238 6.85964 18.7381 6.40033 20.0763 6.40033ZM26.5 31.2002C25.1618 31.2002 24.5475 30.7414 23.7705 30.1601C23.5198 29.9732 23.2564 29.7811 22.967 29.6C23.2564 29.4184 23.5193 29.2267 23.7695 29.0393C24.5475 28.4585 25.1618 27.9998 26.5 27.9998C27.8383 27.9998 28.4525 28.4585 29.2295 29.0393C29.4802 29.2262 29.7436 29.4189 30.033 29.6C29.7436 29.7811 29.4802 29.9732 29.2301 30.1601C28.4531 30.7414 27.8383 31.2002 26.5 31.2002ZM26.5 26.4006C25.1618 26.4006 24.5475 25.9413 23.7705 25.36C23.5198 25.1731 23.2564 24.9809 22.967 24.7993C23.2564 24.6188 23.5193 24.4266 23.7695 24.2397C24.5475 23.6584 25.1618 23.1996 26.5 23.1996C27.8383 23.1996 28.4525 23.6584 29.2295 24.2397C29.4802 24.4266 29.7436 24.6188 30.033 24.8004C29.7436 24.9809 29.4802 25.1731 29.2301 25.36C28.4531 25.9413 27.8383 26.4006 26.5 26.4006ZM26.5 21.6C25.1618 21.6 24.5475 21.1417 23.7705 20.5599C23.5198 20.373 23.2564 20.1808 22.967 19.9997C23.2564 19.8187 23.5193 19.6265 23.7695 19.4396C24.5475 18.8583 25.1618 18.3995 26.5 18.3995C27.8383 18.3995 28.4525 18.8583 29.2295 19.4396C29.4802 19.6265 29.7436 19.8187 30.033 19.9997C29.7436 20.1814 29.4802 20.373 29.2301 20.5599C28.4531 21.1417 27.8383 21.6 26.5 21.6ZM26.5 16.8004C25.1618 16.8004 24.5475 16.3411 23.7705 15.7603C23.5198 15.5734 23.2564 15.3807 22.967 15.1997C23.2564 15.0191 23.5193 14.8269 23.7695 14.6406C24.5475 14.0588 25.1618 13.6 26.5 13.6C27.8383 13.6 28.4525 14.0588 29.2295 14.6406C29.4802 14.8275 29.7436 15.0191 30.033 15.2007C29.7436 15.3818 29.4802 15.5734 29.2301 15.7609C28.4531 16.3411 27.8383 16.8004 26.5 16.8004ZM26.5 12.0003C25.1618 12.0003 24.5475 11.542 23.7705 10.9608C23.5198 10.7739 23.2564 10.5812 22.967 10.4001C23.2564 10.219 23.5193 10.0268 23.7695 9.83992C24.5475 9.25865 25.1618 8.79987 26.5 8.79987C27.8383 8.79987 28.4525 9.25865 29.2295 9.83992C29.4802 10.0268 29.7436 10.2195 30.033 10.4001C29.7436 10.5817 29.4802 10.7739 29.2301 10.9608C28.4531 11.542 27.8383 12.0003 26.5 12.0003ZM20.0763 11.2004C21.4146 11.2004 22.0288 11.6598 22.8058 12.2405C23.0554 12.4274 23.3189 12.6196 23.6082 12.8007C23.3189 12.9817 23.0554 13.1739 22.8048 13.3608C22.0272 13.9426 21.413 14.4014 20.0742 14.4014C18.7359 14.4014 18.1211 13.9426 17.3442 13.3608C17.0945 13.1744 16.8311 12.9823 16.5417 12.8012C16.8317 12.6201 17.0951 12.4279 17.3458 12.2405C18.1238 11.6598 18.7381 11.2004 20.0763 11.2004ZM20.0763 16.0005C21.4146 16.0005 22.0288 16.4593 22.8058 17.0406C23.0554 17.2275 23.3189 17.4197 23.6082 17.6008C23.3189 17.7818 23.0554 17.9745 22.8048 18.1614C22.0272 18.7422 21.413 19.2015 20.0742 19.2015C18.7359 19.2015 18.1211 18.7422 17.3442 18.1614C17.0945 17.9745 16.8311 17.7824 16.5417 17.6013C16.8317 17.4207 17.0951 17.2275 17.3458 17.0406C18.1238 16.4593 18.7381 16.0005 20.0763 16.0005ZM20.0763 20.8007C21.4146 20.8007 22.0288 21.2594 22.8058 21.8407C23.0554 22.0276 23.3189 22.2198 23.6082 22.4009C23.3189 22.582 23.0554 22.7741 22.8048 22.961C22.0272 23.5423 21.413 24.0011 20.0742 24.0011C18.7359 24.0011 18.1211 23.5423 17.3442 22.961C17.0945 22.7747 16.8311 22.5825 16.5417 22.4014C16.8317 22.2203 17.0951 22.0281 17.3458 21.8407C18.1238 21.2594 18.7381 20.8007 20.0763 20.8007ZM20.0763 25.6002C21.4146 25.6002 22.0288 26.059 22.8058 26.6403C23.0554 26.8272 23.3189 27.0193 23.6082 27.1999C23.3189 27.3815 23.0554 27.5737 22.8048 27.7606C22.0272 28.3413 21.413 28.8001 20.0742 28.8001C18.7359 28.8001 18.1211 28.3413 17.3442 27.7606C17.0945 27.5737 16.8311 27.3815 16.5417 27.2004C16.8317 27.0193 17.0951 26.8266 17.3458 26.6397C18.1238 26.0595 18.7381 25.6002 20.0763 25.6002ZM32.9236 28.8001C31.5853 28.8001 30.971 28.3413 30.1935 27.7606C29.9439 27.5737 29.6805 27.3815 29.3911 27.1999C29.6805 27.0188 29.9444 26.8266 30.1941 26.6397C30.9716 26.0585 31.5864 25.5997 32.9246 25.5997C34.2629 25.5997 34.8777 26.0585 35.6552 26.6397C35.9048 26.8266 36.1682 27.0188 36.4571 27.1994C36.1672 27.3804 35.9038 27.5731 35.6536 27.76C34.8761 28.3413 34.2618 28.8001 32.9236 28.8001ZM32.9236 24C31.5853 24 30.971 23.5412 30.1935 22.9599C29.9439 22.773 29.6805 22.5809 29.3911 22.3998C29.6805 22.2192 29.9444 22.0265 30.1941 21.8396C30.9716 21.2583 31.5864 20.7996 32.9246 20.7996C34.2629 20.7996 34.8777 21.2583 35.6552 21.8396C35.9048 22.026 36.1682 22.2182 36.4571 22.3998C36.1672 22.5803 35.9038 22.773 35.6536 22.9599C34.8761 23.5412 34.2618 24 32.9236 24ZM32.9236 19.2004C31.5853 19.2004 30.971 18.7411 30.1935 18.1603C29.9439 17.9734 29.6805 17.7813 29.3911 17.6002C29.6805 17.4186 29.9444 17.2264 30.1941 17.0395C30.9716 16.4582 31.5864 15.9995 32.9246 15.9995C34.2629 15.9995 34.8777 16.4582 35.6552 17.0395C35.9048 17.2264 36.1682 17.4186 36.4571 17.5991C36.1672 17.7807 35.9038 17.9729 35.6536 18.1598C34.8761 18.7411 34.2618 19.2004 32.9236 19.2004ZM32.9236 14.4008C31.5853 14.4008 30.971 13.9421 30.1935 13.3603C29.9439 13.1734 29.6805 12.9812 29.3911 12.8006C29.6805 12.6195 29.9444 12.4268 30.1941 12.2399C30.9716 11.6592 31.5864 11.1999 32.9246 11.1999C34.2629 11.1999 34.8777 11.6592 35.6552 12.2399C35.9048 12.4268 36.1682 12.6185 36.4571 12.8001C36.1672 12.9812 35.9038 13.1734 35.6536 13.3603C34.8761 13.9415 34.2618 14.4008 32.9236 14.4008ZM32.9236 9.60073C31.5853 9.60073 30.971 9.14194 30.1935 8.56067C29.9439 8.37378 29.6805 8.18161 29.3911 8.00052C29.6805 7.81943 29.9444 7.62726 30.1941 7.43984C30.9716 6.8591 31.5864 6.39978 32.9246 6.39978C34.2629 6.39978 34.8777 6.8591 35.6552 7.43984C35.9048 7.62673 36.1682 7.81891 36.4571 7.99999C36.1672 8.18108 35.9038 8.37325 35.6536 8.56067C34.8761 9.14194 34.2618 9.60073 32.9236 9.60073ZM9.95816 7.44039C10.2078 7.62728 10.4712 7.81945 10.7606 8.00054C10.4707 8.18163 10.2073 8.3738 9.95657 8.56122C9.17906 9.14249 8.56479 9.60128 7.22654 9.60128C5.88829 9.60128 5.27402 9.14249 4.49651 8.56122C4.24688 8.37433 3.98294 8.18215 3.69409 8.00107C3.98347 7.81998 4.24688 7.62781 4.49757 7.44039C5.27508 6.85964 5.88935 6.40033 7.22813 6.40033C8.56691 6.40033 9.18065 6.85964 9.95816 7.44039ZM10.9201 9.84041C11.6976 9.25914 12.3118 8.80035 13.6501 8.80035C14.9883 8.80035 15.6031 9.25914 16.3801 9.84041C16.6303 10.0273 16.8942 10.22 17.1841 10.4011C16.8947 10.5817 16.6319 10.7738 16.3822 10.9607C15.6047 11.542 14.9905 12.0002 13.6522 12.0002C12.314 12.0002 11.6992 11.542 10.9222 10.9607C10.672 10.7738 10.4081 10.5811 10.1182 10.4C10.4075 10.2195 10.6704 10.0268 10.9201 9.84041ZM9.95816 12.2405C10.2078 12.4274 10.4712 12.619 10.7606 12.8007C10.4707 12.9817 10.2073 13.1739 9.95657 13.3608C9.17906 13.9426 8.56479 14.4014 7.22654 14.4014C5.88829 14.4014 5.27402 13.9426 4.49651 13.3608C4.24688 13.1739 3.98294 12.9817 3.69409 12.8012C3.98347 12.6201 4.24688 12.4274 4.49757 12.2405C5.27508 11.6598 5.88935 11.2004 7.22813 11.2004C8.56691 11.2004 9.18065 11.6598 9.95816 12.2405ZM10.9201 14.6411C11.6976 14.0593 12.3118 13.6005 13.6501 13.6005C14.9883 13.6005 15.6031 14.0593 16.3801 14.6411C16.6303 14.8279 16.8942 15.0196 17.1841 15.2012C16.8947 15.3823 16.6319 15.5745 16.3822 15.7614C15.6047 16.3421 14.9905 16.8014 13.6522 16.8014C12.314 16.8014 11.6992 16.3421 10.9222 15.7614C10.672 15.5745 10.4081 15.3818 10.1182 15.2007C10.4075 15.0191 10.6704 14.8269 10.9201 14.6411ZM9.95816 17.0406C10.2078 17.2275 10.4712 17.4197 10.7606 17.6002C10.4707 17.7818 10.2073 17.974 9.95657 18.1609C9.17906 18.7416 8.56479 19.201 7.22654 19.201C5.88829 19.201 5.27402 18.7416 4.49651 18.1609C4.24688 17.974 3.98294 17.7818 3.69409 17.6007C3.98347 17.4191 4.24688 17.227 4.49757 17.0401C5.27508 16.4588 5.88935 16 7.22813 16C8.56691 16 9.18065 16.4593 9.95816 17.0406ZM10.9201 19.4401C11.6976 18.8588 12.3118 18.4 13.6501 18.4C14.9883 18.4 15.6031 18.8588 16.3801 19.4401C16.6303 19.627 16.8942 19.8197 17.1841 20.0008C16.8947 20.1813 16.6319 20.373 16.3822 20.5599C15.6047 21.1417 14.9905 21.5999 13.6522 21.5999C12.314 21.5999 11.6992 21.1417 10.9222 20.5599C10.672 20.373 10.4081 20.1808 10.1182 19.9992C10.4075 19.8191 10.6704 19.627 10.9201 19.4401ZM9.95816 21.8402C10.2078 22.0265 10.4712 22.2187 10.7606 22.4003C10.4707 22.5809 10.2073 22.7736 9.95657 22.9605C9.17906 23.5417 8.56479 24.0005 7.22654 24.0005C5.88829 24.0005 5.27402 23.5417 4.49651 22.9605C4.24688 22.7736 3.98294 22.5814 3.69409 22.4003C3.98347 22.2198 4.24688 22.0271 4.49757 21.8402C5.27508 21.2589 5.88935 20.8001 7.22813 20.8001C8.56691 20.8001 9.18065 21.2594 9.95816 21.8402ZM10.9201 24.2402C11.6976 23.6589 12.3118 23.2001 13.6501 23.2001C14.9883 23.2001 15.6031 23.6589 16.3801 24.2402C16.6303 24.4271 16.8942 24.6193 17.1841 24.8009C16.8947 24.982 16.6319 25.1741 16.3822 25.3605C15.6047 25.9418 14.9905 26.4011 13.6522 26.4011C12.314 26.4011 11.6992 25.9418 10.9222 25.3605C10.672 25.1736 10.4081 24.9814 10.1182 24.7998C10.4075 24.6187 10.6704 24.4271 10.9201 24.2402ZM9.95816 26.6403C10.2078 26.8272 10.4712 27.0193 10.7606 27.1999C10.4707 27.381 10.2073 27.5737 9.95657 27.7606C9.17906 28.3413 8.56479 28.8001 7.22654 28.8001C5.88829 28.8001 5.27402 28.3413 4.49651 27.7606C4.24688 27.5737 3.98294 27.3815 3.69409 27.1999C3.98347 27.0188 4.24688 26.8266 4.49757 26.6397C5.27508 26.0585 5.88935 25.5997 7.22813 25.5997C8.56691 25.5997 9.18065 26.0595 9.95816 26.6403ZM10.9201 29.0398C11.6976 28.459 12.3118 28.0002 13.6501 28.0002C14.9883 28.0002 15.6031 28.459 16.3801 29.0398C16.6303 29.2267 16.8942 29.4199 17.1841 29.6005C16.8947 29.781 16.6319 29.9732 16.3822 30.1601C15.6047 30.7414 14.9905 31.2001 13.6522 31.2001C12.314 31.2001 11.6992 30.7414 10.9222 30.1601C10.672 29.9732 10.4081 29.781 10.1182 29.5994C10.4075 29.4188 10.6704 29.2272 10.9201 29.0398ZM9.95816 31.4404C10.2078 31.6267 10.4712 31.8189 10.7606 32C10.4707 32.1811 10.2073 32.3738 9.95657 32.5607C9.17906 33.1419 8.56479 33.6007 7.22654 33.6007C5.88829 33.6007 5.27402 33.1419 4.49651 32.5607C4.24688 32.3738 3.98294 32.1816 3.69409 32.0005C3.98347 31.8194 4.24688 31.6273 4.49757 31.4404C5.27508 30.8591 5.88935 30.3998 7.22813 30.3998C8.56691 30.3998 9.18065 30.8591 9.95816 31.4404ZM43.0419 32.5602C42.7917 32.3733 42.5288 32.1816 42.24 32.0006C42.5294 31.8189 42.7933 31.6273 43.0435 31.4399C43.821 30.8586 44.4352 30.3993 45.7735 30.3993C47.1112 30.3993 47.726 30.8586 48.503 31.4399C48.7532 31.6268 49.0166 31.8189 49.306 31.9995C49.016 32.1811 48.7526 32.3733 48.5025 32.5602C47.725 33.1415 47.1107 33.6002 45.7724 33.6002C44.4337 33.6002 43.8194 33.1415 43.0419 32.5602ZM42.0799 30.1601C41.3018 30.7414 40.6876 31.2002 39.3498 31.2002C38.0116 31.2002 37.3968 30.7414 36.6198 30.1601C36.3691 29.9732 36.1057 29.7805 35.8158 29.5994C36.1052 29.4184 36.3681 29.2267 36.6182 29.0393C37.3957 28.4585 38.0095 27.9998 39.3477 27.9998C40.686 27.9998 41.3008 28.4585 42.0783 29.0393C42.3284 29.2262 42.5918 29.4194 42.8818 29.6C42.5924 29.7811 42.329 29.9738 42.0799 30.1601ZM43.0419 27.7606C42.7917 27.5737 42.5288 27.3815 42.24 27.2004C42.5294 27.0188 42.7933 26.8266 43.0435 26.6397C43.821 26.0585 44.4352 25.5997 45.7735 25.5997C47.1112 25.5997 47.726 26.0585 48.503 26.6397C48.7532 26.8266 49.0166 27.0188 49.306 27.1999C49.016 27.381 48.7526 27.5731 48.5025 27.7606C47.725 28.3413 47.1107 28.8001 45.7724 28.8001C44.4337 28.8001 43.8194 28.3413 43.0419 27.7606ZM42.0799 25.36C41.3018 25.9413 40.6876 26.4006 39.3498 26.4006C38.0116 26.4006 37.3968 25.9413 36.6198 25.36C36.3691 25.1731 36.1057 24.9809 35.8158 24.7993C36.1052 24.6182 36.3681 24.4261 36.6182 24.2397C37.3957 23.6584 38.0095 23.1996 39.3477 23.1996C40.686 23.1996 41.3008 23.6584 42.0783 24.2397C42.3284 24.4266 42.5918 24.6188 42.8818 24.8004C42.5924 24.982 42.329 25.1742 42.0799 25.36ZM43.0419 22.9599C42.7917 22.7736 42.5288 22.5814 42.24 22.4003C42.5294 22.2192 42.7933 22.027 43.0435 21.8396C43.821 21.2583 44.4352 20.7996 45.7735 20.7996C47.1112 20.7996 47.726 21.2583 48.503 21.8396C48.7532 22.0265 49.0166 22.2187 49.306 22.3998C49.016 22.5809 48.7526 22.773 48.5025 22.9599C47.725 23.5412 47.1107 24 45.7724 24C44.4337 24 43.8194 23.5412 43.0419 22.9599ZM42.0799 20.5604C41.3018 21.1422 40.6876 21.6004 39.3498 21.6004C38.0116 21.6004 37.3968 21.1422 36.6198 20.5604C36.3691 20.3735 36.1057 20.1808 35.8158 19.9997C36.1052 19.8191 36.3681 19.627 36.6182 19.4401C37.3957 18.8588 38.0095 18.4 39.3477 18.4C40.686 18.4 41.3008 18.8588 42.0783 19.4401C42.3284 19.627 42.5918 19.8197 42.8818 20.0008C42.5924 20.1819 42.329 20.3735 42.0799 20.5604ZM43.0419 18.1609C42.7917 17.974 42.5288 17.7818 42.24 17.6007C42.5294 17.4197 42.7933 17.227 43.0435 17.0401C43.821 16.4588 44.4352 16 45.7735 16C47.1112 16 47.726 16.4588 48.503 17.0401C48.7532 17.227 49.0166 17.4191 49.306 17.6007C49.016 17.7813 48.7526 17.974 48.5025 18.1609C47.725 18.7416 47.1107 19.201 45.7724 19.201C44.4337 19.2004 43.8194 18.7411 43.0419 18.1609ZM42.0799 15.7608C41.3018 16.3416 40.6876 16.8009 39.3498 16.8009C38.0116 16.8009 37.3968 16.3416 36.6198 15.7608C36.3691 15.5739 36.1057 15.3812 35.8158 15.2001C36.1052 15.0191 36.3681 14.8269 36.6182 14.6405C37.3957 14.0593 38.0095 13.6005 39.3477 13.6005C40.686 13.6005 41.3008 14.0593 42.0783 14.6411C42.3284 14.8279 42.5918 15.0196 42.8818 15.2012C42.5924 15.3818 42.329 15.5739 42.0799 15.7608ZM43.0419 13.3603C42.7917 13.1739 42.5288 12.9817 42.24 12.8006C42.5294 12.6195 42.7933 12.4274 43.0435 12.2399C43.821 11.6592 44.4352 11.1999 45.7735 11.1999C47.1112 11.1999 47.726 11.6592 48.503 12.2399C48.7532 12.4268 49.0166 12.619 49.306 12.8001C49.016 12.9812 48.7526 13.1734 48.5025 13.3603C47.725 13.9421 47.1107 14.4008 45.7724 14.4008C44.4337 14.4008 43.8194 13.9415 43.0419 13.3603ZM42.0799 10.9608C41.3018 11.542 40.6876 12.0003 39.3498 12.0003C38.0116 12.0003 37.3968 11.542 36.6198 10.9608C36.3691 10.7739 36.1057 10.5806 35.8158 10.4001C36.1052 10.219 36.3681 10.0268 36.6182 9.83992C37.3957 9.25865 38.0095 8.79987 39.3477 8.79987C40.686 8.79987 41.3008 9.25865 42.0783 9.83992C42.3284 10.0268 42.5918 10.2195 42.8818 10.4006C42.5924 10.5817 42.329 10.7739 42.0799 10.9608ZM43.0419 8.56069C42.7917 8.3738 42.5288 8.18163 42.24 8.00107C42.5294 7.81945 42.7933 7.62728 43.0435 7.44039C43.821 6.85964 44.4352 6.40033 45.7735 6.40033C47.1112 6.40033 47.726 6.85964 48.503 7.44039C48.7532 7.62728 49.0166 7.81945 49.306 8.00054C49.016 8.18215 48.7526 8.37433 48.5025 8.56122C47.725 9.14249 47.1107 9.60128 45.7724 9.60128C44.4337 9.60075 43.8194 9.14196 43.0419 8.56069ZM42.0799 6.16065C41.3018 6.74192 40.6876 7.20071 39.3498 7.20071C38.0116 7.20071 37.3968 6.74192 36.6198 6.16065C36.3691 5.97375 36.1057 5.78105 35.8158 5.59997C36.1052 5.41835 36.3681 5.22671 36.6182 5.03981C37.3957 4.45854 38.0095 3.99976 39.3477 3.99976C40.686 3.99976 41.3008 4.45854 42.0783 5.03981C42.3284 5.22671 42.5918 5.41941 42.8818 5.60049C42.5924 5.78158 42.329 5.97428 42.0799 6.16065ZM32.9246 1.60022C34.2629 1.60022 34.8777 2.05901 35.6552 2.64028C35.9048 2.82717 36.1682 3.01934 36.4571 3.20043C36.1672 3.38152 35.9038 3.57369 35.6536 3.76111C34.8756 4.34238 34.2613 4.80117 32.9236 4.80117C31.5853 4.80117 30.971 4.34238 30.1935 3.76111C29.9439 3.57422 29.6805 3.38205 29.3911 3.20096C29.6805 3.01987 29.9444 2.82717 30.1941 2.64028C30.9716 2.05953 31.5864 1.60022 32.9246 1.60022ZM20.0763 1.60022C21.4146 1.60022 22.0288 2.05901 22.8058 2.64028C23.0554 2.82717 23.3189 3.01934 23.6082 3.20043C23.3189 3.38152 23.0554 3.57422 22.8048 3.76111C22.0272 4.34238 21.413 4.80117 20.0742 4.80117C18.7359 4.80117 18.1211 4.34238 17.3442 3.76111C17.0945 3.57422 16.8311 3.38205 16.5417 3.20096C16.8317 3.01987 17.0951 2.8277 17.3458 2.64028C18.1238 2.05953 18.7381 1.60022 20.0763 1.60022ZM7.22813 1.60022C8.56638 1.60022 9.18118 2.05901 9.95816 2.64028C10.2078 2.82717 10.4712 3.01934 10.7606 3.20043C10.4707 3.38152 10.2073 3.57369 9.95657 3.76111C9.17906 4.34238 8.56479 4.80117 7.22654 4.80117C5.88829 4.80117 5.27402 4.34238 4.49651 3.76111C4.24688 3.57422 3.98294 3.38205 3.69409 3.20096C3.98347 3.01987 4.24688 2.82717 4.49757 2.64028C5.27508 2.05953 5.88935 1.60022 7.22813 1.60022ZM7.22654 38.4003C5.88829 38.4003 5.27402 37.9415 4.49651 37.3603C4.24688 37.1734 3.98294 36.9812 3.69409 36.8001C3.98347 36.6185 4.24688 36.4268 4.49757 36.2399C5.27508 35.6581 5.88935 35.1999 7.22813 35.1999C8.56691 35.1999 9.18118 35.6581 9.95816 36.2399C10.2078 36.4268 10.4712 36.6185 10.7606 36.799C10.4707 36.9807 10.2073 37.1728 9.95657 37.3597C9.17906 37.941 8.56479 38.4003 7.22654 38.4003ZM20.0748 38.4003C18.7366 38.4003 18.1218 37.9415 17.3448 37.3603C17.0951 37.1734 16.8317 36.9812 16.5424 36.8006C16.8323 36.6195 17.0957 36.4268 17.3464 36.2399C18.1239 35.6581 18.7381 35.1999 20.0764 35.1999C21.4146 35.1999 22.0289 35.6581 22.8059 36.2399C23.0555 36.4268 23.3189 36.6185 23.6083 36.7996C23.3189 36.9812 23.0555 37.1734 22.8048 37.3603C22.0279 37.941 21.4136 38.4003 20.0748 38.4003ZM32.9236 38.4003C31.5853 38.4003 30.971 37.9415 30.1935 37.3603C29.9439 37.1734 29.6805 36.9812 29.3911 36.8001C29.6805 36.6185 29.9444 36.4268 30.1941 36.2399C30.9716 35.6581 31.5864 35.1999 32.9246 35.1999C34.2629 35.1999 34.8777 35.6581 35.6552 36.2399C35.9048 36.4268 36.1682 36.6185 36.4571 36.799C36.1672 36.9807 35.9038 37.1728 35.6536 37.3597C34.8761 37.941 34.2618 38.4003 32.9236 38.4003ZM45.7724 38.4003C44.4337 38.4003 43.8189 37.9415 43.0419 37.3603C42.7917 37.1734 42.5288 36.9812 42.24 36.8006C42.5294 36.619 42.7933 36.4268 43.0435 36.2399C43.821 35.6581 44.4352 35.1999 45.7735 35.1999C47.1112 35.1999 47.726 35.6581 48.503 36.2399C48.7532 36.4268 49.0166 36.6185 49.306 36.8001C49.016 36.9812 48.7526 37.1734 48.5025 37.3603C47.7255 37.941 47.1112 38.4003 45.7724 38.4003Z" fill="#225378"/>
</svg>
