<svg width="200" height="142" viewBox="0 0 200 142" fill="none" xmlns="http://www.w3.org/2000/svg">
<path id="boat" fill-rule="evenodd" clip-rule="evenodd" d="M189.994 122.226C185.76 120.781 182.434 120.051 180.012 120.051C177.59 120.051 174.26 120.781 170.024 122.226C165.79 123.683 162.466 124.414 160.046 124.414C158.04 124.414 155.358 123.886 152.068 122.888C151.388 122.68 150.72 122.476 149.986 122.226C146.636 121.082 143.882 120.406 141.672 120.167C141.102 120.098 140.554 120.049 140.072 120.049C140.06 120.049 140.048 120.055 140.032 120.055C140.024 120.055 140.008 120.049 140 120.049C137.956 120.049 135.22 120.599 131.878 121.637C131.256 121.826 130.652 121.999 129.984 122.226C125.708 123.67 122.378 124.394 119.966 124.406C118.922 124.398 117.674 124.243 116.286 123.97C114.502 123.609 112.434 123.045 110.012 122.224C107.894 121.514 106.084 121.036 104.434 120.679C103.938 117.486 103.19 113.559 102.082 108.909C104.222 109.196 106.856 109.858 110.012 110.916C114.312 112.371 117.604 113.1 119.892 113.1C122.314 113.1 125.674 112.371 129.982 110.916C134.282 109.473 137.646 108.744 140.068 108.744C142.348 108.744 145.64 109.473 149.952 110.916C154.25 112.371 157.616 113.1 160.042 113.1H162.06C162.19 113.1 162.388 113.105 162.66 113.1C163.698 113.066 164.762 112.805 165.686 112.497C169.058 111.381 177.018 106.278 182.942 99.0755C194.124 85.4854 198.914 71.3651 198.914 71.3651L151.516 78.5814V55.1536H125.704V15.9366H116.61V80.5469L60.754 0L53.742 4.68712L70.62 29.0279H49.258V37.3595H58.104L58.078 37.5126C58.032 37.7758 53.494 64.1332 45.062 83.239C37.424 100.542 26.45 113.013 19.06 120.11C16.724 120.255 13.69 120.94 9.882 122.222C5.58 123.679 2.28 124.41 0 124.41V138.864C2.282 138.864 5.58 138.141 9.882 136.682C14.182 135.231 17.55 134.509 19.97 134.509C22.392 134.509 25.716 135.231 29.956 136.682C34.194 138.141 37.518 138.864 39.94 138.864C39.962 138.864 39.986 138.856 40.012 138.856V138.864C40.478 138.864 41.022 138.815 41.578 138.752C43.796 138.514 46.564 137.841 49.928 136.68C50.826 136.376 51.658 136.117 52.47 135.873C55.532 134.978 58.04 134.513 59.944 134.507C61.954 134.513 64.638 135.039 67.932 136.036C68.598 136.241 69.25 136.435 69.968 136.68C73.294 137.825 76.034 138.499 78.24 138.746C78.824 138.813 79.386 138.864 79.878 138.864C79.89 138.864 79.902 138.864 79.916 138.864C79.926 138.864 79.938 138.864 79.948 138.864C81.99 138.864 84.716 138.318 88.044 137.281C88.676 137.091 89.292 136.91 89.972 136.68C94.234 135.241 97.574 134.517 99.99 134.507C100.992 134.513 102.19 134.664 103.518 134.915C105.33 135.273 107.446 135.842 109.938 136.68C112.36 137.501 114.456 138.067 116.284 138.422C117.664 138.697 118.896 138.864 119.892 138.864C119.912 138.864 119.938 138.864 119.964 138.856C119.98 138.864 120.008 138.864 120.03 138.864C122.452 138.864 125.772 138.141 130.008 136.682C130.664 136.457 131.262 136.278 131.876 136.087C135.248 135.06 137.99 134.513 140.028 134.507C140.534 134.507 141.086 134.556 141.666 134.617C143.8 134.862 146.544 135.536 149.952 136.682C150.698 136.934 151.374 137.136 152.064 137.344C155.306 138.338 157.966 138.864 159.968 138.864V138.856C159.992 138.856 160.016 138.864 160.042 138.864C162.462 138.864 165.786 138.141 170.02 136.682C174.256 135.231 177.586 134.509 180.008 134.509C182.43 134.509 185.756 135.231 189.99 136.682C194.226 138.141 197.56 138.864 199.98 138.864V124.41C197.564 124.414 194.23 123.683 189.994 122.226ZM128.35 66.0104H141.4V78.817H128.35V66.0104ZM63.7519 50.3584C66.6199 56.9345 70.0619 65.7845 72.6559 75.5141C70.0699 75.361 67.2219 75.3472 64.1639 75.5082C64.4299 66.4168 64.1359 57.3547 63.7519 50.3584ZM63.974 80.2269C67.626 80.0148 70.922 80.0895 73.854 80.3369C74.578 83.5101 75.192 86.7461 75.646 89.9899C75.736 90.636 75.796 91.2408 75.876 91.8691C72.422 90.9011 68.468 90.2 63.126 90.1352C63.514 86.9464 63.792 83.62 63.974 80.2269ZM59.1739 55.3107C59.4339 61.5962 59.5719 68.9499 59.3399 76.2132C57.0619 76.7591 54.4559 77.5387 52.2419 78.2456C55.1499 70.4461 57.4619 62.2461 59.1739 55.3107ZM49.46 85.1162C49.626 84.7431 49.78 84.3563 49.942 83.9754C52.204 83.1958 55.956 81.9705 59.12 81.1281C58.938 84.2679 58.67 87.3312 58.3 90.2392C57.646 90.2707 57.046 90.2805 56.35 90.3335C53.04 90.575 49.008 91.6177 45.786 92.6093C47.06 90.2078 48.304 87.7376 49.46 85.1162ZM50.688 121.981C50.418 122.065 50.172 122.134 49.894 122.226C46.48 123.383 43.72 124.064 41.58 124.298C41.002 124.359 40.44 124.416 39.942 124.416C37.52 124.416 34.196 123.685 29.958 122.228C28.186 121.62 26.612 121.174 25.16 120.816C27.138 118.802 29.268 116.465 31.47 113.84C32.884 113.42 44.984 109.871 50.714 109.266C52.18 109.111 53.538 109.021 54.86 108.954C53.378 115.047 51.906 119.21 50.688 121.981ZM50.202 104.583C46.57 104.968 40.85 106.364 36.406 107.554C38.392 104.852 40.368 101.925 42.292 98.7653C44.108 98.0937 51.632 95.3977 56.71 95.0246C57.028 95.0011 57.29 94.9971 57.596 94.9814C57.054 98.3883 56.496 101.453 55.926 104.193C54.134 104.257 52.25 104.369 50.202 104.583ZM75.76 123.862C74.094 123.499 72.198 122.973 70.002 122.226C69.272 121.981 68.61 121.789 67.934 121.584C64.668 120.583 61.992 120.051 59.982 120.051C59.972 120.051 59.96 120.057 59.946 120.057C59.934 120.057 59.922 120.051 59.912 120.051C58.916 120.051 57.754 120.184 56.45 120.436C57.536 117.471 58.68 113.673 59.806 108.86C67.776 109.051 72.762 110.816 76.666 112.194C76.73 112.218 76.786 112.236 76.848 112.259C76.672 116.95 76.24 120.842 75.76 123.862ZM60.82 104.204C61.388 101.385 61.94 98.2547 62.47 94.8282C68.552 94.8479 72.624 95.7452 76.422 96.9528C76.748 100.66 76.918 104.136 76.936 107.299C73.044 105.95 68.104 104.477 60.82 104.204ZM77.73 76.0091C75.53 67.2966 72.648 59.2439 69.972 52.7169C75.246 59.4737 81.392 68.2726 86.28 77.8117C84.026 77.1441 81.164 76.4765 77.73 76.0091ZM78.884 80.9652C84.134 81.8528 87.62 83.1861 89.14 83.8557C90.086 86.0274 90.974 88.2109 91.724 90.418C91.882 90.8736 92.014 91.3095 92.166 91.767H80.69C80.59 90.96 80.51 90.1785 80.394 89.3518C80 86.5242 79.472 83.7241 78.884 80.9652ZM89.944 122.226C89.276 122.458 88.67 122.637 88.046 122.833C85.008 123.764 82.516 124.272 80.558 124.371C81.038 121.317 81.458 117.471 81.642 112.891C83.976 112.605 86.94 111.967 90.04 110.918C92.87 109.972 95.216 109.357 97.172 109.033C98.218 113.335 98.956 117.029 99.464 120.082C97.088 120.159 93.936 120.856 89.944 122.226ZM97.2022 91.7649C96.8962 90.8204 96.6022 89.9014 96.2702 88.9275C89.1662 67.9975 73.0942 48.4046 65.8422 40.2537H78.4062L114.122 91.7649H97.2022Z" fill="#225378"/>
</svg>
