<svg width="36" height="32" viewBox="0 0 36 32" fill="none" xmlns="http://www.w3.org/2000/svg">
<path fill-rule="evenodd" clip-rule="evenodd" d="M9.57495 2.1746L10.6108 0.0782471L7.85799 1.38206C7.25991 0.74381 5.96199 0.301539 4.45623 0.301539C2.38311 0.301539 0.702148 1.34852 0.702148 2.1746C0.702148 2.95277 2.38263 4.04766 4.45623 4.04766C5.96199 4.04766 7.25991 3.60539 7.85799 2.96666L10.6108 4.27096L9.57495 2.1746Z" fill="#225378"/>
<path fill-rule="evenodd" clip-rule="evenodd" d="M21.8367 2.1746L22.8725 0.0782471L20.1192 1.38206C19.5216 0.74381 18.2232 0.301539 16.7179 0.301539C14.6443 0.301539 12.9639 1.34852 12.9639 2.1746C12.9639 2.95277 14.6443 4.04766 16.7179 4.04766C18.2237 4.04766 19.5216 3.60539 20.1192 2.96666L22.8725 4.27096L21.8367 2.1746Z" fill="#225378"/>
<path fill-rule="evenodd" clip-rule="evenodd" d="M34.0981 2.1746L35.1345 0.0782471L32.3812 1.38206C31.7831 0.74381 30.4852 0.301539 28.9794 0.301539C26.9063 0.301539 25.2253 1.34852 25.2253 2.1746C25.2253 2.95277 26.9063 4.04766 28.9794 4.04766C30.4852 4.04766 31.7831 3.60539 32.3812 2.96666L35.1345 4.27096L34.0981 2.1746Z" fill="#225378"/>
<path fill-rule="evenodd" clip-rule="evenodd" d="M9.57495 15.5467L10.6108 13.4508L7.85799 14.7546C7.25991 14.1159 5.96199 13.6736 4.45623 13.6736C2.38311 13.6736 0.702148 14.7206 0.702148 15.5467C0.702148 16.3253 2.38263 17.4197 4.45623 17.4197C5.96199 17.4197 7.25991 16.9775 7.85799 16.3387L10.6108 17.643L9.57495 15.5467Z" fill="#225378"/>
<path fill-rule="evenodd" clip-rule="evenodd" d="M21.8367 15.5467L22.8725 13.4508L20.1192 14.7546C19.5216 14.1159 18.2232 13.6736 16.7179 13.6736C14.6443 13.6736 12.9639 14.7206 12.9639 15.5467C12.9639 16.3253 14.6443 17.4197 16.7179 17.4197C18.2237 17.4197 19.5216 16.9775 20.1192 16.3387L22.8725 17.643L21.8367 15.5467Z" fill="#225378"/>
<path fill-rule="evenodd" clip-rule="evenodd" d="M34.0981 15.5467L35.1345 13.4508L32.3812 14.7546C31.7831 14.1159 30.4852 13.6736 28.9794 13.6736C26.9063 13.6736 25.2253 14.7206 25.2253 15.5467C25.2253 16.3253 26.9063 17.4197 28.9794 17.4197C30.4852 17.4197 31.7831 16.9775 32.3812 16.3387L35.1345 17.643L34.0981 15.5467Z" fill="#225378"/>
<path fill-rule="evenodd" clip-rule="evenodd" d="M21.8367 28.9701L22.8725 26.8737L20.1192 28.178C19.5216 27.5398 18.2232 27.097 16.7179 27.097C14.6443 27.097 12.9639 28.144 12.9639 28.9701C12.9639 29.7478 14.6443 30.8431 16.7179 30.8431C18.2237 30.8431 19.5216 30.4004 20.1192 29.7621L22.8725 31.0659L21.8367 28.9701Z" fill="#225378"/>
<path fill-rule="evenodd" clip-rule="evenodd" d="M14.5688 8.82731L15.6047 6.73096L12.8519 8.03477C12.2533 7.39652 10.9554 6.95377 9.45012 6.95377C7.377 6.95377 5.69604 8.00123 5.69604 8.82683C5.69604 9.605 7.37652 10.6999 9.45012 10.6999C10.9559 10.6999 12.2538 10.2576 12.8519 9.61937L15.6047 10.9232L14.5688 8.82731Z" fill="#225378"/>
<path fill-rule="evenodd" clip-rule="evenodd" d="M26.8306 8.82731L27.8659 6.73096L25.1131 8.03477C24.5146 7.39652 23.2171 6.95377 21.7114 6.95377C19.6382 6.95377 17.9573 8.00123 17.9573 8.82683C17.9573 9.605 19.6382 10.6999 21.7114 10.6999C23.2171 10.6999 24.515 10.2576 25.1131 9.61937L27.8659 10.9232L26.8306 8.82731Z" fill="#225378"/>
<path fill-rule="evenodd" clip-rule="evenodd" d="M14.5295 22.2842L15.5654 20.1879L12.8121 21.4922C12.2135 20.8534 10.9156 20.4112 9.41033 20.4112C7.33721 20.4112 5.65625 21.4586 5.65625 22.2842C5.65625 23.0624 7.33673 24.1568 9.41033 24.1568C10.9161 24.1568 12.214 23.7145 12.8121 23.0758L15.5649 24.3801L14.5295 22.2842Z" fill="#225378"/>
<path fill-rule="evenodd" clip-rule="evenodd" d="M26.7912 22.2842L27.8266 20.1879L25.0738 21.4922C24.4752 20.8534 23.1778 20.4112 21.672 20.4112C19.5994 20.4112 17.918 21.4586 17.918 22.2842C17.918 23.0624 19.5989 24.1568 21.672 24.1568C23.1778 24.1568 24.4757 23.7145 25.0738 23.0758L27.8266 24.3801L26.7912 22.2842Z" fill="#225378"/>
</svg>
