<svg width="48" height="46" viewBox="0 0 48 46" fill="none" xmlns="http://www.w3.org/2000/svg">
<g id="icon-fishes">
<g id="fishes">
<path id="Path" fill-rule="evenodd" clip-rule="evenodd" d="M15.5749 9.1746L16.6108 7.07825L13.858 8.38206C13.2599 7.74381 11.962 7.30154 10.4562 7.30154C8.38311 7.30154 6.70215 8.34852 6.70215 9.1746C6.70215 9.95277 8.38263 11.0477 10.4562 11.0477C11.962 11.0477 13.2599 10.6054 13.858 9.96666L16.6108 11.271L15.5749 9.1746Z" fill="#225378"/>
<path id="Path_2" fill-rule="evenodd" clip-rule="evenodd" d="M27.8367 9.1746L28.8725 7.07825L26.1192 8.38206C25.5216 7.74381 24.2232 7.30154 22.7179 7.30154C20.6443 7.30154 18.9639 8.34852 18.9639 9.1746C18.9639 9.95277 20.6443 11.0477 22.7179 11.0477C24.2237 11.0477 25.5216 10.6054 26.1192 9.96666L28.8725 11.271L27.8367 9.1746Z" fill="#225378"/>
<path id="Path_3" fill-rule="evenodd" clip-rule="evenodd" d="M40.0981 9.1746L41.1345 7.07825L38.3812 8.38206C37.7831 7.74381 36.4852 7.30154 34.9794 7.30154C32.9063 7.30154 31.2253 8.34852 31.2253 9.1746C31.2253 9.95277 32.9063 11.0477 34.9794 11.0477C36.4852 11.0477 37.7831 10.6054 38.3812 9.96666L41.1345 11.271L40.0981 9.1746Z" fill="#225378"/>
<path id="Path_4" fill-rule="evenodd" clip-rule="evenodd" d="M15.5749 22.5467L16.6108 20.4508L13.858 21.7546C13.2599 21.1159 11.962 20.6736 10.4562 20.6736C8.38311 20.6736 6.70215 21.7206 6.70215 22.5467C6.70215 23.3253 8.38263 24.4197 10.4562 24.4197C11.962 24.4197 13.2599 23.9775 13.858 23.3387L16.6108 24.643L15.5749 22.5467Z" fill="#225378"/>
<path id="Path_5" fill-rule="evenodd" clip-rule="evenodd" d="M27.8367 22.5467L28.8725 20.4508L26.1192 21.7546C25.5216 21.1159 24.2232 20.6736 22.7179 20.6736C20.6443 20.6736 18.9639 21.7206 18.9639 22.5467C18.9639 23.3253 20.6443 24.4197 22.7179 24.4197C24.2237 24.4197 25.5216 23.9775 26.1192 23.3387L28.8725 24.643L27.8367 22.5467Z" fill="#225378"/>
<path id="Path_6" fill-rule="evenodd" clip-rule="evenodd" d="M40.0981 22.5467L41.1345 20.4508L38.3812 21.7546C37.7831 21.1159 36.4852 20.6736 34.9794 20.6736C32.9063 20.6736 31.2253 21.7206 31.2253 22.5467C31.2253 23.3253 32.9063 24.4197 34.9794 24.4197C36.4852 24.4197 37.7831 23.9775 38.3812 23.3387L41.1345 24.643L40.0981 22.5467Z" fill="#225378"/>
<path id="Path_7" fill-rule="evenodd" clip-rule="evenodd" d="M27.8367 35.9701L28.8725 33.8737L26.1192 35.178C25.5216 34.5398 24.2232 34.097 22.7179 34.097C20.6443 34.097 18.9639 35.144 18.9639 35.9701C18.9639 36.7478 20.6443 37.8431 22.7179 37.8431C24.2237 37.8431 25.5216 37.4004 26.1192 36.7621L28.8725 38.0659L27.8367 35.9701Z" fill="#225378"/>
<path id="Path_8" fill-rule="evenodd" clip-rule="evenodd" d="M20.5688 15.8273L21.6047 13.731L18.8519 15.0348C18.2533 14.3965 16.9554 13.9538 15.4501 13.9538C13.377 13.9538 11.696 15.0012 11.696 15.8268C11.696 16.605 13.3765 17.6999 15.4501 17.6999C16.9559 17.6999 18.2538 17.2576 18.8519 16.6194L21.6047 17.9232L20.5688 15.8273Z" fill="#225378"/>
<path id="Path_9" fill-rule="evenodd" clip-rule="evenodd" d="M32.8306 15.8273L33.8659 13.731L31.1131 15.0348C30.5146 14.3965 29.2171 13.9538 27.7114 13.9538C25.6382 13.9538 23.9573 15.0012 23.9573 15.8268C23.9573 16.605 25.6382 17.6999 27.7114 17.6999C29.2171 17.6999 30.515 17.2576 31.1131 16.6194L33.8659 17.9232L32.8306 15.8273Z" fill="#225378"/>
<path id="Path_10" fill-rule="evenodd" clip-rule="evenodd" d="M20.5295 29.2842L21.5654 27.1879L18.8121 28.4922C18.2135 27.8534 16.9156 27.4112 15.4103 27.4112C13.3372 27.4112 11.6562 28.4586 11.6562 29.2842C11.6562 30.0624 13.3367 31.1568 15.4103 31.1568C16.9161 31.1568 18.214 30.7145 18.8121 30.0758L21.5649 31.3801L20.5295 29.2842Z" fill="#225378"/>
<path id="Path_11" fill-rule="evenodd" clip-rule="evenodd" d="M32.7912 29.2842L33.8266 27.1879L31.0738 28.4922C30.4752 27.8534 29.1778 27.4112 27.672 27.4112C25.5994 27.4112 23.918 28.4586 23.918 29.2842C23.918 30.0624 25.5989 31.1568 27.672 31.1568C29.1778 31.1568 30.4757 30.7145 31.0738 30.0758L33.8266 31.3801L32.7912 29.2842Z" fill="#225378"/>
</g>
<path id="net" fill-rule="evenodd" clip-rule="evenodd" d="M0.299072 3.88171H2.29539V0.156189H0.299072V3.88171ZM2.29539 9.47552H0.299072V5.75049H2.29539V9.47552ZM0.299072 15.0698H2.29539V11.3442H0.299072V15.0698ZM2.29539 20.6636H0.299072V16.938H2.29539V20.6636ZM0.299072 26.2578H2.29539V22.5323H0.299072V26.2578ZM2.29539 31.8516H0.299072V28.1261H2.29539V31.8516ZM2.35634 37.5202L3.37106 37.9016L4.0973 36.0443L2.76002 35.5374L2.57234 35.4631C2.44178 35.4631 2.29538 35.281 2.29538 35.0371V33.7199H0.298584V35.0371C0.298584 36.294 0.986904 37.0793 2.35634 37.5202ZM8.59163 39.9347L5.11499 38.5811L5.84123 36.7238L9.31787 38.0784L8.59163 39.9347ZM13.8116 41.9688L10.3354 40.6142L11.0612 38.7579L14.5378 40.1115L13.8116 41.9688ZM27.0701 44.6813L26.3444 42.825L23.9228 43.768L21.5016 42.825L20.7759 44.6813L23.9021 45.9156L23.9228 45.9075L23.9439 45.9156L27.0701 44.6813ZM32.2901 42.6482L28.8134 44.0018L28.0881 42.1456L31.5648 40.791L32.2901 42.6482ZM34.0339 41.9688L37.51 40.6142L36.7848 38.7579L33.3086 40.1115L34.0339 41.9688ZM42.7305 38.5811L39.2543 39.9347L38.5286 38.0784L42.0047 36.7238L42.7305 38.5811ZM44.4745 37.9016L45.4888 37.5202C46.8011 37.0458 47.5465 36.294 47.5465 35.0371V33.7199H45.5502V35.0371C45.5502 35.281 45.4038 35.4631 45.2737 35.4631L45.0856 35.5374L43.7483 36.0443L44.4745 37.9016ZM47.5468 31.8516H45.55V28.1261H47.5468V31.8516ZM45.55 26.2578H47.5468V22.5323H45.55V26.2578ZM47.5468 20.6636H45.55V16.938H47.5468V20.6636ZM45.55 15.0698H47.5468V11.3442H45.55V15.0698ZM47.5468 9.47552H45.55V5.75049H47.5468V9.47552ZM45.55 3.88171H47.5468V0.156189H45.55V3.88171ZM15.5559 42.6482L19.0321 44.0018L19.7578 42.1456L16.2817 40.791L15.5559 42.6482Z" fill="#225378"/>
</g>
</svg>
