<svg width="65" height="65" viewBox="0 0 65 65" fill="none" xmlns="http://www.w3.org/2000/svg">
<path fill-rule="evenodd" clip-rule="evenodd" d="M15.7212 56.9419C15.9745 57.1965 16.32 57.3387 16.6789 57.3387C17.0392 57.3387 17.3833 57.1952 17.638 56.9419L64.6034 9.97502C65.1331 9.44538 65.1331 8.5893 64.6034 8.05966L56.942 0.396888C56.6887 0.142229 56.3433 0 55.9843 0C55.6254 0 55.2813 0.142229 55.0267 0.396888L53.9712 1.45235C51.3431 -0.287166 47.7585 -9.08375e-05 45.446 2.31357L30.1218 17.6391C29.5922 18.1688 29.5922 19.0248 30.1218 19.5545C30.386 19.8186 30.7327 19.9514 31.0795 19.9514C31.4263 19.9514 31.7731 19.8186 32.0372 19.5545L47.3614 4.22893C48.6108 2.97951 50.4773 2.71508 51.9879 3.43562L8.05982 47.3637C7.53019 47.8934 7.53019 48.7494 8.05982 49.2791L9.0175 50.2369L4.22794 55.0265C3.97328 55.2798 3.83105 55.6252 3.83105 55.9842C3.83105 56.3431 3.97328 56.6872 4.22794 56.9418L5.1857 57.8993L0.397226 62.6877C-0.132409 63.2174 -0.132409 64.0734 0.397226 64.6031C0.661366 64.8672 1.00814 65 1.3549 65C1.70167 65 2.04844 64.8672 2.31258 64.6031L7.10139 59.8143L8.06001 60.7725C8.32415 61.0367 8.67092 61.1694 9.01768 61.1694C9.36445 61.1694 9.71122 61.0367 9.97536 60.7725L14.7637 55.9842L15.7212 56.9419ZM15.7181 53.1078L15.7214 53.1111L15.725 53.1147L16.679 54.0689L46.4037 24.3442L40.6575 18.5969L10.9329 48.3215L11.8692 49.258C11.8764 49.2649 11.8836 49.2719 11.8907 49.2791C11.8979 49.2863 11.905 49.2935 11.912 49.3008L15.7181 53.1078ZM10.9327 52.1524L12.8485 54.0686L9.01768 57.8995L7.10097 55.9842L10.9327 52.1524ZM61.7304 9.01742L48.3191 22.4288L42.5728 16.6816L55.9844 3.27L61.7304 9.01742Z" fill="#EB7F00"/>
</svg>
