<svg width="65" height="65" viewBox="0 0 65 65" fill="none" xmlns="http://www.w3.org/2000/svg">
<path d="M49.4 13.65C49.0567 13.65 48.7226 13.5109 48.4793 13.2691C48.2376 13.0274 48.1 12.6923 48.1 12.35C48.1 12.0082 48.2376 11.6731 48.4793 11.4309C48.7226 11.1891 49.0567 11.05 49.4 11.05C49.7418 11.05 50.0769 11.1891 50.3186 11.4309C50.5609 11.6731 50.7 12.0082 50.7 12.35C50.7 12.6923 50.5609 13.0274 50.3186 13.2691C50.0769 13.5109 49.7418 13.65 49.4 13.65ZM64.3275 24.4896C64.7416 24.7102 65 25.1407 65 25.6098V63.7305C65 64.4317 64.4317 65 63.7305 65H1.26953C0.568313 65 0 64.4317 0 63.7305V20.0586C0 19.3574 0.568313 18.7891 1.26953 18.7891V12.8173C1.26953 8.99929 4.37592 5.89291 8.19344 5.89291H11.6822C12.61 5.01465 13.8066 4.54304 15.0702 4.56833C15.335 4.57329 15.5964 4.59957 15.8528 4.64619C17.4065 1.82594 20.4241 0 23.6956 0C27.4675 0 30.8218 2.40467 32.0948 5.8691C32.2907 5.85075 32.4876 5.84133 32.6855 5.84133C35.7066 5.84133 38.2352 7.98962 38.8239 10.8391H44.6087C45.3099 10.8391 45.8782 11.4074 45.8782 12.1087C45.8782 12.8099 45.3099 13.3782 44.6087 13.3782H37.6833C36.982 13.3782 36.4137 12.8099 36.4137 12.1087C36.4137 10.0531 34.741 8.38039 32.6855 8.38039C32.323 8.38039 31.9659 8.43346 31.6232 8.53512C31.1179 8.68538 30.6413 8.94573 30.2411 9.29337C29.9084 9.58298 29.6317 9.92466 29.4189 10.309C29.1878 10.728 28.7539 10.9646 28.3071 10.9646C28.0993 10.9646 27.8885 10.9135 27.6941 10.8059C27.0802 10.4672 26.8575 9.69456 27.1967 9.08112C27.5533 8.43544 28.017 7.86217 28.5754 7.37717C28.9091 7.08706 29.2756 6.83414 29.6634 6.62041C28.7197 4.20582 26.3527 2.53906 23.6956 2.53906C21.0633 2.53906 18.6601 4.18995 17.7159 6.64669C17.5885 6.97796 17.3281 7.24079 16.9983 7.37171C16.6681 7.50214 16.2986 7.48875 15.9787 7.33452C15.6792 7.19021 15.3569 7.11334 15.0211 7.10689C14.4166 7.09797 13.8399 7.33005 13.3936 7.76745C12.9299 8.22269 12.6636 8.8525 12.6636 9.4957C12.6636 10.7697 13.7005 11.8066 14.9745 11.8066H19.768C20.4692 11.8066 21.0375 12.375 21.0375 13.0762C21.0375 13.7774 20.4692 14.3457 19.768 14.3457H14.9745C12.3006 14.3457 10.1245 12.1701 10.1245 9.4957C10.1245 9.13666 10.1662 8.7801 10.2435 8.43197H8.19344C5.77587 8.43197 3.80859 10.3992 3.80859 12.8173V18.7891H6.05061V16.9914C6.05061 15.2874 7.43668 13.9014 9.14062 13.9014C9.84184 13.9014 10.4102 14.4697 10.4102 15.1709C10.4102 15.8721 9.84184 16.4404 9.14062 16.4404C8.83663 16.4404 8.58967 16.6874 8.58967 16.9914V18.7891H10.4102C11.1114 18.7891 11.6797 19.3574 11.6797 20.0586V34.0234H31.2305V20.0586C31.2305 19.6128 31.4645 19.1992 31.8469 18.9701C32.2292 18.7405 32.7038 18.7286 33.0971 18.9383L41.6406 23.4943V20.0586C41.6406 19.6128 41.8747 19.1997 42.257 18.9701C42.6394 18.7405 43.114 18.7286 43.5072 18.9383L52.0508 23.4943V20.0586C52.0508 19.6128 52.2848 19.1992 52.6672 18.9701C53.0495 18.7405 53.5241 18.7286 53.9174 18.9383L64.3275 24.4896ZM2.53906 26.4062V57.3828H9.14062V26.4062H2.53906ZM9.14062 23.8672V21.3281H2.53906V23.8672H9.14062ZM2.53906 59.9219V62.4609H9.14062V59.9219H2.53906ZM32.5 62.4609H49.7656V36.5625H11.6797V39.1016H23.1055C23.8067 39.1016 24.375 39.6699 24.375 40.3711C24.375 41.0723 23.8067 41.6406 23.1055 41.6406H11.6797V62.4609H32.5ZM62.4609 62.4609V26.371L54.5898 22.1741V25.6093C54.5898 26.0556 54.3558 26.4687 53.9734 26.6983C53.5911 26.9275 53.1165 26.9398 52.7232 26.7296L44.1797 22.1741V25.6098C44.1797 26.0556 43.9456 26.4687 43.5633 26.6983C43.1809 26.9275 42.7063 26.9398 42.3131 26.7301L33.7695 22.1741V34.0234H51.0352C51.7364 34.0234 52.3047 34.5918 52.3047 35.293V62.4609H62.4609ZM21.5074 45.5C22.1937 45.5 22.75 46.0563 22.75 46.7426V52.7074C22.75 53.3937 22.1937 53.95 21.5074 53.95H15.5426C14.8563 53.95 14.3 53.3937 14.3 52.7074V46.7426C14.3 46.0563 14.8563 45.5 15.5426 45.5H21.5074ZM20.2647 51.4647V47.9853H16.7853V51.4647H20.2647ZM33.8573 45.5C34.5437 45.5 35.1 46.0563 35.1 46.7426V52.7074C35.1 53.3937 34.5437 53.95 33.8573 53.95H27.8926C27.2063 53.95 26.65 53.3937 26.65 52.7074V46.7426C26.65 46.0563 27.2063 45.5 27.8926 45.5H33.8573ZM32.6147 51.4647V47.9853H29.1353V51.4647H32.6147ZM46.2074 45.5C46.8937 45.5 47.45 46.0563 47.45 46.7426V52.7074C47.45 53.3937 46.8937 53.95 46.2074 53.95H40.2426C39.5563 53.95 39 53.3937 39 52.7074V46.7426C39 46.0563 39.5563 45.5 40.2426 45.5H46.2074ZM44.9647 51.4647V47.9853H41.4853V51.4647H44.9647ZM27.95 41.6C27.6077 41.6 27.2726 41.4609 27.0309 41.2191C26.7876 40.9774 26.65 40.6418 26.65 40.3C26.65 39.9582 26.7876 39.6226 27.0309 39.3809C27.2726 39.1391 27.6067 39 27.95 39C28.2918 39 28.6269 39.1391 28.8686 39.3809C29.1109 39.6226 29.25 39.9582 29.25 40.3C29.25 40.6418 29.1109 40.9774 28.8686 41.2191C28.6269 41.4609 28.2918 41.6 27.95 41.6Z" fill="#225378"/>
</svg>
