<svg width="52" height="53" viewBox="0 0 52 53" fill="none" xmlns="http://www.w3.org/2000/svg">
<g id="volleyball">
<g id="Group">
<path id="Path" d="M1.08341 12.375V52.4583" stroke="#225378" stroke-width="1.8"/>
<path id="Path_2" d="M50.9167 12.375V52.4583" stroke="#225378" stroke-width="1.8"/>
<rect id="Rectangle" x="1.08325" y="15.625" width="49.8333" height="16.25" stroke="#225378" stroke-width="1.8"/>
<path id="Path_3" d="M6.49992 15.0203V32.3537" stroke="#225378" stroke-width="1.8"/>
<path id="Path_4" d="M11.9167 15.0203V32.3537" stroke="#225378" stroke-width="1.8"/>
<path id="Path_5" d="M17.3334 15.0203V32.3537" stroke="#225378" stroke-width="1.8"/>
<path id="Path_6" d="M22.7499 15.0203V32.3537" stroke="#225378" stroke-width="1.8"/>
<path id="Path_7" d="M28.1667 15.0203V32.3537" stroke="#225378" stroke-width="1.8"/>
<path id="Path_8" d="M33.5834 15.0203V32.3537" stroke="#225378" stroke-width="1.8"/>
<path id="Path_9" d="M38.9999 15.0203V32.3537" stroke="#225378" stroke-width="1.8"/>
<path id="Path_10" d="M44.4167 15.0203V32.3537" stroke="#225378" stroke-width="1.8"/>
<path id="Path_11" d="M1.54199 21.0417H50.9166" stroke="#225378" stroke-width="1.8"/>
<path id="Path_12" d="M1.54199 26.4583H50.9166" stroke="#225378" stroke-width="1.8"/>
</g>
<path id="Oval" fill-rule="evenodd" clip-rule="evenodd" d="M15.1666 10.2084C17.5598 10.2084 19.4999 8.26825 19.4999 5.87502C19.4999 3.48179 17.5598 1.54169 15.1666 1.54169C12.7734 1.54169 10.8333 3.48179 10.8333 5.87502C10.8333 8.26825 12.7734 10.2084 15.1666 10.2084Z" stroke="#225378" stroke-width="1.8"/>
</g>
</svg>
